<svg viewBox="385.6500000000001 199.87790697674427 942.6999999999999 924.1666666666667" xmlns="http://www.w3.org/2000/svg" xmlns:xlink="http://www.w3.org/1999/xlink" overflow="visible" width="942.6999999999999px" height="924.1666666666667px"><defs><polygon id="masterstickersvase-plant-1-path-1" points="0.217853982 0.555995633 308.628022 0.555995633 308.628022 315 0.217853982 315"/></defs><g id="Master/Stickers/Vase Plant 1" stroke="none" stroke-width="1" fill="none" fill-rule="evenodd"><g id="Group-16" transform="translate(401.000000, 206.000000)"><path d="M912,136 C912,136 901.507629,216.721281 744.943371,314.5 C702.19943,341.096825 682.474213,369.098121 667.754025,395.067065 C653.664979,399.60268 632.528652,405.391303 619.688107,404.452235 C619.688107,404.452235 638.947547,409.929672 659.769681,409.929672 C639.573176,448.257961 619.387695,480.172498 544.080747,493 C544.080747,493 464.647958,445.38568 526.689924,308.243219 C542.972806,322.320976 564.109132,348.915047 564.109132,348.915047 C561.603861,328.42354 542.815709,304.957859 533.423011,294.316926 C533.577352,294.162709 533.577352,294.005739 533.734448,293.848769 C579.297852,208.434902 666.974057,205.460729 751.362266,200.299986 C750.422445,211.717509 747.605738,228.772193 740.247022,241.910881 C740.247022,241.910881 762.634606,225.015922 769.524789,199.046978 C783.45674,198.10791 797.237107,196.857655 810.700525,194.97952 C849.528086,189.659053 890.863674,168.228478 912,136" id="Fill-1" fill="#009BA0"/><path d="M14.2943306,155.545115 C35.7142102,152.381708 61.0333801,151.872774 89.0389093,155.704512 C127.638232,160.985702 166.488809,173.98169 204.366782,196.376433 C204.823459,196.646436 205.079867,197.151505 205.038643,197.670767 L205.013744,197.844076 L195.264684,244.502505 L217.007472,205.938568 C217.371055,205.29363 218.170645,205.060091 218.815876,205.381015 L218.961767,205.464982 C232.232719,214.206604 245.329112,224.246581 258.379994,235.719219 C307.328827,278.643376 337.514379,322.726282 352.428855,366.248252 C362.650005,396.074618 364.624252,421.902773 361.875093,442.014682 C361.760186,442.855299 361.641045,443.64263 361.519692,444.375695 L361.33626,445.434471 L361.15103,446.411114 L360.96541,447.302209 L360.805136,447.9898 L360.751167,448.147326 L360.697704,448.261981 L360.61829,448.395082 L360.525478,448.51699 L360.420522,448.62696 L360.346943,448.691545 L360.211787,448.788643 L360.067542,448.86778 L360.051359,448.872993 C359.999495,448.898591 359.952438,448.916893 359.904404,448.932584 L359.759,448.97111 L359.606156,448.994426 L359.451382,449 L359.273113,448.98476 L359.112213,448.950556 L358.954851,448.896532 L358.840314,448.843013 L358.70735,448.763517 L358.657953,448.727962 C352.901798,444.443661 347.061818,440.714977 340.963953,437.388551 L339.552096,436.627986 L338.230692,435.932229 C338.010759,435.817632 337.790935,435.703696 337.571155,435.590394 L336.252505,434.917951 L334.931887,434.259333 C334.711451,434.150639 334.490806,434.042464 334.269889,433.934778 L332.940612,433.294318 L331.601758,432.664244 L330.250282,432.043182 C330.023815,431.940346 329.796696,431.837828 329.56886,431.7356 L328.192746,431.125477 C327.961793,431.024293 327.729996,430.923341 327.497293,430.822592 L326.089693,430.220314 L324.657298,429.621548 L323.197063,429.024919 C322.951201,428.925582 322.704053,428.826277 322.455555,428.726975 L320.947855,428.130972 C320.693702,428.031568 320.438072,427.93211 320.180902,427.832569 L318.618888,427.234099 L317.016861,426.632265 L315.371777,426.025692 L313.680593,425.413006 L311.050719,424.479507 L309.230967,423.845521 L307.354461,423.200609 L304.426633,422.209747 L302.394928,421.531504 L284.508676,415.618445 L278.454026,413.583274 L274.206059,412.126552 L270.075808,410.670372 L267.112591,409.589221 L264.696875,408.677788 L262.713181,407.905692 L260.128966,406.865577 L258.760617,406.299375 L257.29773,405.683149 L255.803797,405.043491 L254.264051,404.374926 L252.663728,403.671977 L250.117357,402.541109 L249.22228,402.14103 C227.908848,392.602324 206.927934,380.264093 184.180517,363.233889 C183.492579,362.718854 183.44817,361.720464 184.045928,361.142795 L184.183848,361.025777 L211.954659,340.364002 L176.526638,356.281517 C176.124146,356.462341 175.663408,356.437633 175.285853,356.223698 L175.12955,356.120473 L173.613816,354.950725 L171.604345,353.361583 L169.809467,351.914393 L167.763248,350.244813 C157.266091,341.614393 146.429826,331.388164 135.58786,320.116821 L133.178576,317.595098 C129.163397,313.3643 125.150824,308.995735 121.157796,304.517382 L118.76446,301.817418 C118.366007,301.365303 117.967783,300.912146 117.569805,300.457975 L115.18503,297.721006 C114.788105,297.262891 114.39146,296.803818 113.995112,296.343816 L111.620726,293.572862 L109.254284,290.780931 L106.896597,287.969365 C106.504424,287.499209 106.11265,287.028291 105.721291,286.556639 L103.378263,283.718139 C102.988635,283.243662 102.599456,282.768507 102.210744,282.292701 L99.8842031,279.430289 C99.4974245,278.951995 99.1111462,278.473106 98.7253851,277.993651 L96.4171619,275.110348 L94.1221666,272.214797 C93.7408148,271.731259 93.3600481,271.247267 92.9798834,270.762848 L90.7062543,267.851442 C89.9508761,266.879417 89.1980414,265.90591 88.4478856,264.931146 L86.2055905,262.003301 L83.980182,259.069251 C83.610733,258.5798 83.2420215,258.090147 82.8740643,257.600319 L80.6755103,254.659479 C80.3106386,254.169065 79.9465552,253.678532 79.5832771,253.187908 L77.4134069,250.2433 C76.6934281,249.261551 75.9768058,248.279663 75.2636754,247.29786 L73.134896,244.352928 L71.0278815,241.40985 L68.943445,238.469967 L67.0743437,235.847779 L65.220225,233.268048 C64.9124552,232.84162 64.6053108,232.416953 64.2987923,231.994043 L62.4671966,229.477628 L60.6506491,227.00318 L58.8491759,224.5705 L57.0628033,222.179394 L55.2915575,219.829665 L53.5354647,217.521117 L51.7945511,215.253553 L50.068843,213.026776 L48.3583665,210.840592 L46.6631478,208.694803 L44.9832133,206.589213 C44.7044993,206.24162 44.4264233,205.895694 44.1489857,205.551431 L42.4920264,203.505772 L40.8504167,201.499821 C40.5780957,201.168794 40.3064153,200.839413 40.0353762,200.511675 L38.4168401,198.564918 L36.8137192,196.657379 C36.5478184,196.342714 36.282561,196.029674 36.0179476,195.718255 L34.4379985,193.869175 L32.8735301,192.058822 L31.3245687,190.286999 L29.7911404,188.55351 L28.2732714,186.85816 L26.770988,185.200751 L25.2843163,183.581088 L23.8132826,181.998974 C23.569415,181.738407 23.3262,181.479396 23.0836382,181.221937 L21.6361107,179.695779 L20.2042867,178.206679 L18.7881924,176.754441 C18.553489,176.515463 18.319442,176.278012 18.0860521,176.042084 L16.66125,174.612854 C16.1924935,174.146336 15.7299191,173.689675 15.2735411,173.242766 L13.9230097,171.931187 C13.4790382,171.503676 13.041277,171.085811 12.6097401,170.677487 L11.3338167,169.481032 L10.0953236,168.341191 C9.89203198,168.1559 9.69030347,167.972942 9.49013982,167.792303 L8.30795042,166.736198 L7.16340216,165.735126 L6.05657933,164.788455 C5.87525732,164.635175 5.69551072,164.484135 5.51734128,164.335323 L4.51621963,163.50903 L3.62428782,162.79105 C3.48128058,162.677446 3.34110002,162.566851 3.20375009,162.459236 L2.41364975,161.849065 C2.28763817,161.75325 2.16446515,161.660355 2.04413463,161.57035 L1.32092859,161.039189 L0.789685837,160.665516 L0.629567664,160.558771 C-0.372830794,159.910365 -0.131398256,158.379279 1.02178066,158.071484 L1.91848734,157.848356 L3.10431471,157.574281 L4.0036456,157.377251 L4.48565229,157.274848 C5.18735253,157.12727 5.9185603,156.979737 6.67883676,156.832859 L8.23801792,156.540156 L9.87393539,156.250286 L11.585809,155.964331 L13.3728586,155.683377 C13.6769216,155.637029 13.9840843,155.590934 14.2943306,155.545115 Z" id="Fill-3" fill="#017C7F" fill-rule="nonzero"/><path d="M456.77109,491 C456.77109,491 382.991099,469.144625 330.854083,374.880244 C348.614046,369.72744 360.073063,357.817086 360.073063,357.817086 C347.468419,361.367896 324.550384,362.857035 324.550384,362.857035 C216.093164,226.704102 270.794069,0 270.794069,0 C282.8259,29.8928686 342.632554,72.6539839 391.101362,135.5281 C384.456179,141.371798 361.089256,165.041115 355.24546,174.317263 C355.24546,174.317263 381.503988,154.184994 395.482833,147.424691 C439.944702,205.605682 473.50109,277.967894 486.334309,335.00657 C514.294753,460.077672 456.77109,491 456.77109,491" id="Fill-5" fill="#009BA0"/><path d="M293.240691,83.4264106 C311.205756,132.536157 330.111574,181.326598 350.706344,229.384838 C361.071123,253.376798 371.787995,277.244889 383.940753,300.347748 C385.486667,303.221498 386.939056,306.147548 388.559241,308.971751 L393.48031,317.416833 C396.731681,323.051475 400.205863,328.644827 403.556261,334.260201 C410.064505,345.62858 416.468222,357.076786 422.060471,368.946145 C433.517292,392.530714 442.479194,417.392506 448.374024,442.978241 C451.366826,455.758722 453.649938,468.682339 455.746,481.597699 C456.82704,488.041615 457.806302,494.524069 458.69479,501.039554 C459.481501,507.546781 460.262711,514.054008 460.898131,520.572246 C463.555343,546.625929 465.431346,572.729159 467.252334,598.832389 C469.02656,624.941124 470.599982,651.055365 471.997356,677.188874 C472.04962,678.138533 471.320675,678.947807 470.374421,679 C469.425417,679.049654 468.6167,678.320206 468.564436,677.370548 L468.564436,677.36229 C467.257836,651.248049 465.772438,625.136561 464.091737,599.041589 C462.361523,572.954875 460.576295,546.859903 458.012608,520.861273 C457.401944,514.359551 456.648242,507.877097 455.886288,501.397396 C455.028058,494.950727 454.079053,488.498553 453.017269,482.03812 C450.97072,469.133771 448.742623,456.273464 445.813087,443.57281 C440.050293,418.149481 431.245183,393.463857 419.934151,369.964619 C414.416172,358.144808 408.078473,346.724129 401.636246,335.380523 C398.305103,329.756892 394.89694,324.226849 391.631814,318.526144 L386.705244,310.003989 C385.082309,307.155012 383.635421,304.215199 382.095008,301.324933 C369.975259,278.087195 359.327155,254.155794 349.036647,230.100523 C328.584915,181.92392 309.844141,133.059158 292.038619,83.8558215 C291.917586,83.5255054 292.090883,83.1594051 292.420971,83.0382892 C292.75381,82.9171733 293.122409,83.0933419 293.240691,83.4264106" id="Fill-7" fill="#000"/><path d="M80.7888709,192.09032 L211.059157,282.363639 C232.789206,297.436244 253.476896,314.041143 272.863697,332.046289 C277.783968,336.469861 282.423709,341.193289 287.195464,345.776417 C291.769198,350.557615 296.521701,355.171004 300.922166,360.120012 C309.987126,369.770441 318.394765,380.020582 326.499873,390.493553 C334.511471,401.049053 341.8685,412.099728 348.587461,423.543794 C355.058895,435.128159 360.86201,447.111416 365.069955,459.776916 C366.134317,462.924034 366.940153,466.142677 367.889003,469.322807 C368.752595,472.522194 369.833459,475.677565 370.510031,478.918216 C371.953933,485.380261 373.683866,491.790039 374.888494,498.298851 C377.553526,511.266958 379.795013,524.312092 381.824728,537.381985 C389.748316,589.702822 394.569577,642.386788 397.996439,695.16979 C398.056946,696.116126 397.33912,696.935917 396.39302,697 C395.444169,697.05696 394.627333,696.338955 394.564076,695.389868 L394.564076,695.384366 L394.564076,695.356856 C391.348986,642.692147 386.728497,590.008181 379.027682,537.805636 C377.055723,524.766003 374.869242,511.753881 372.264716,498.835291 C371.090342,492.348487 369.396163,485.982725 367.985263,479.54819 C367.325193,476.315791 366.266331,473.204436 365.424742,470.024306 C364.497894,466.874437 363.708561,463.6723 362.671701,460.563695 C358.587519,448.104519 352.891666,436.214795 346.524742,424.718461 C339.910292,413.354174 332.652274,402.355767 324.728686,391.833279 C316.708837,381.39332 308.386456,371.162435 299.395755,361.52026 C295.039294,356.576754 290.322545,351.963365 285.784564,347.184917 C281.048563,342.601789 276.444576,337.878361 271.560059,333.452039 C252.305272,315.430386 231.755097,298.80348 210.132309,283.684108 L80.2168104,192.915613 C79.9885362,192.758807 79.9307801,192.445196 80.090297,192.216865 C80.2470636,191.988533 80.5605968,191.930763 80.7888709,192.09032" id="Fill-9" fill="#000"/><path d="M844.638966,213.428188 C800.28662,241.401736 755.675113,268.962696 711.162859,296.68869 L677.827606,317.483187 C666.937337,324.53021 656.717025,332.710479 646.857885,341.229071 C636.940847,349.706404 627.707553,358.948402 618.664493,368.338932 C614.324928,373.207485 609.756529,377.872494 605.665096,382.952842 L599.384581,390.442712 L593.429395,398.193888 C585.434008,408.492114 578.373253,419.450484 571.681941,430.609646 C570.082863,433.437258 568.602338,436.333634 567.055644,439.194253 C565.586147,442.090629 563.863003,444.868729 562.597526,447.861377 L558.599832,456.748548 L556.609256,461.193509 L554.949524,465.767748 L551.630059,474.916226 C550.472107,477.952883 549.849018,481.149074 548.930927,484.257246 C548.101061,487.392924 547.196755,490.492844 546.422029,493.658779 L544.307387,503.23635 L536.052838,541.604395 C525.352804,592.828721 515.107679,644.165821 505.419475,695.59094 C505.245782,696.523392 504.349747,697.142275 503.412357,696.971738 C502.477724,696.798451 501.857392,695.899007 502.028328,694.963804 C511.622793,643.483673 521.55913,592.075058 532.410801,540.83973 L540.709462,502.444178 L542.840647,492.858356 C543.620886,489.667666 544.550006,486.482477 545.396414,483.291787 C546.333804,480.128603 546.981706,476.866398 548.156201,473.782981 L551.541834,464.477719 L553.237408,459.826464 L555.261068,455.312738 L559.333202,446.296288 C560.620735,443.256881 562.365935,440.445773 563.860246,437.510889 C565.431753,434.611762 566.934334,431.676877 568.558225,428.813508 C575.343277,417.519566 582.503284,406.440171 590.586897,396.042923 L596.613765,388.222982 L602.960449,380.664347 C607.098751,375.54274 611.711263,370.836472 616.092184,365.929411 C625.226226,356.464615 634.547745,347.151101 644.566793,338.602253 C654.538971,330.012146 664.83648,321.774114 675.972125,314.581309 C687.140854,307.570043 698.33164,300.858592 709.511398,293.982105 C754.260756,266.663198 798.913619,239.182007 843.820128,212.113404 C844.186813,211.890606 844.663779,212.006131 844.887099,212.37196 C845.107661,212.732288 844.994623,213.202639 844.638966,213.428188" id="Fill-11" fill="#000"/><g id="Group-15" transform="translate(299.000000, 587.000000)"><mask id="masterstickersvase-plant-1-mask-2" fill="#fff"><use xlink:href="#masterstickersvase-plant-1-path-1"/></mask><g id="Clip-14"/><path d="M100.502969,315.000275 L208.342907,315.000275 C246.741774,315.000275 278.857341,310.590275 282.52604,272.383114 L308.628022,0.555995633 L0.217853982,0.555995633 L26.3170841,272.383114 C29.9857832,310.590275 62.1013496,315.000275 100.502969,315.000275" id="Fill-13" fill="#F0F1FF" mask="url(#masterstickersvase-plant-1-mask-2)"/></g></g></g></svg>