<svg viewBox="300 137.5 449.99999999999983 725.0000000000001" fill="none" xmlns="http://www.w3.org/2000/svg" xmlns:xlink="http://www.w3.org/1999/xlink" overflow="visible" width="449.99999999999983px" height="725.0000000000001px"><g id="Master/Stickers/Plant 1"><g id="Plant Right" opacity="0.7"><path id="Leaf Me Alone!" fill-rule="evenodd" clip-rule="evenodd" d="M341.691 350.176C365.849 348.922 395.727 363.024 398.304 389.284C400.176 408.364 399.597 427.39 402.494 446.441C404.811 461.668 409.711 476.284 416.394 490.154C422.82 503.491 436.151 514.844 439.618 529.092C441.828 538.171 440.591 550.942 437.543 559.822C433.837 570.619 435.807 569.766 443.192 578.826C457.662 596.58 470.692 614.786 479.906 635.991C493.178 666.533 501.879 702.234 496.953 735.666C496.327 739.912 495.584 755.147 489.738 756.212C483.208 757.402 486.261 748.689 486.61 745.874C488.832 727.915 490.805 712.217 488.126 693.977C477.785 623.601 427.299 577.234 394.426 517.505C392.618 514.424 388.803 507.09 386.151 502.251C381.963 494.611 377.753 480.075 372.083 474.41C361.406 463.739 371.222 485.193 373.303 489.288C375.933 494.469 378.827 499.975 381.523 504.515C393.856 525.557 407.623 548.527 420.361 570.219C365.27 582.771 326.471 516.539 311.687 472.996C299.506 437.121 284.932 353.245 341.691 350.176" fill="#56919C"/><path id="Leaf Me Alone!_2" fill-rule="evenodd" clip-rule="evenodd" d="M665.488 283.555C625.102 286.759 599.175 313.408 587.106 350.681C580.602 370.768 579.856 391.403 576.241 412.045C570.804 443.102 559.104 466.637 536.238 488.763C529.156 495.616 523.937 502.652 520.227 510.179C512.862 517.694 506.451 526.199 501.741 536.597C495.724 549.876 494.022 565.808 500.969 579.047C502.836 582.605 507.496 589.75 512.325 592.996C494.245 631.501 484.304 673.672 485.425 715.79C486.102 741.214 487.343 766.649 488.791 792.042C489.181 798.86 491.401 810.119 494.736 798.684C497.789 788.225 493.961 771.806 493.607 760.879C491.883 707.65 490.41 659.252 512.322 609.521C514.62 604.308 517.056 599.138 519.593 594.009C519.742 593.922 519.88 593.818 520.02 593.717C520.117 593.791 520.205 593.872 520.301 593.945C520.464 593.656 520.685 593.312 520.944 592.927C521.672 592.177 522.307 591.228 522.912 590.168C524.855 587.475 527.055 584.311 527.067 582.579C527.067 582.565 527.059 582.544 527.059 582.531C540.624 560.388 556.16 539.466 572.03 518.953C571.911 519.102 589.243 495.503 586.563 508.554C585.271 514.843 572.522 526.82 567.373 533.482C555.983 548.303 542.607 567.082 531.492 585.241C529.997 586.1 527.884 590.32 526.355 593.464C525.511 595.056 524.724 596.662 523.95 598.061C563.334 611.073 593.971 584.862 614.862 554.376C614.887 554.34 614.91 554.303 614.933 554.267C621.291 545.843 627.803 537.479 635.939 530.82C649.512 519.708 664.049 517.748 680.052 512.279C723.695 497.368 742.251 440.806 748.144 398.838C754.793 351.49 722.27 278.886 665.488 283.555" fill="#89C5CC"/><path id="Leaf Me Alone!_3" fill-rule="evenodd" clip-rule="evenodd" d="M585.711 150.962C544.262 194.102 524.237 253.936 508.381 310.187C490.671 373.014 478.974 436.809 478.525 502.13C478.23 545.045 477.063 588.229 479.568 631.095C480.456 646.319 481.974 661.569 484.387 676.629C484.586 677.867 489.984 711.494 495.15 703.658C498.088 699.202 489.616 668.775 488.976 663.707C485.375 635.164 484.538 606.409 484.714 577.659C485.003 530.324 483.607 483.23 488.405 436.068C489.12 429.027 489.686 421.631 491.358 414.742C493.134 407.419 490.872 410.616 496.657 407.716C502.278 404.898 509.223 405.3 515.055 401.764C538.188 387.737 550.021 351.707 559.231 328.066C569.765 301.032 576.167 272.203 581.281 243.753C585.035 222.85 587.72 202.074 589.239 180.902C589.718 174.229 589.746 167.252 591.058 160.691C591.411 158.921 593.183 155.79 593.119 154.223C592.983 150.905 590.981 148.955 590.817 146.167C589.082 147.729 587.378 149.328 585.711 150.962" fill="#89C5CC"/><ellipse id="Base" cx="488.879" cy="790.312" rx="129.176" ry="64.5881" fill="#89C5CC"/><path id="Leaf Me Alone!_4" fill-rule="evenodd" clip-rule="evenodd" d="M660.498 662.9C645.077 636.06 609.374 610.267 577.403 612.624C573.951 612.852 570.673 613.84 567.748 615.475C561.575 615.113 556.48 615.146 555.094 615.342C517.544 620.599 500.423 668.168 494.948 700.555C493.314 710.221 492.73 719.991 492.223 729.769C491.892 736.148 487.5 757.601 491.401 762.577C497.566 770.445 497.492 750.297 497.63 748.499C498.476 737.516 498.999 726.462 500.285 715.519C504.126 682.822 518.591 631.359 555.744 623.208C559.188 622.452 571.162 623.718 581.203 624.81C585.083 626.008 588.158 627.607 588.999 629.624C591.757 636.229 573.136 627.873 571.287 627.475C560.443 625.138 553.341 627.402 554.503 639.984C555.344 649.104 562.564 654.748 569.098 660.261C573.27 663.783 577.785 666.925 581.915 670.496C599.638 685.827 602.48 705.42 603.082 727.912C603.535 744.829 604.664 773.768 628.078 773.5C646.793 773.286 658.015 751.341 663.157 735.949C670.836 712.958 672.93 684.541 660.498 662.9" fill="#56919C"/></g></g></svg>