<svg viewBox="287.5 137.5 387.50000000000006 725.0000000000001" fill="none" xmlns="http://www.w3.org/2000/svg" xmlns:xlink="http://www.w3.org/1999/xlink" overflow="visible" width="387.50000000000006px" height="725.0000000000001px"><g id="Master/Stickers/Plant 2"><g id="Plant Left" opacity="0.5"><path id="Leaf" fill-rule="evenodd" clip-rule="evenodd" d="M533.547 291.081C539.195 283.027 549.677 262.574 557.627 259.696C562.747 257.842 561.254 277.016 561.318 280.672C561.564 294.817 560.187 308.872 558.486 322.898C555.423 348.194 545.405 370.722 531.664 392.252C524.594 403.33 516.3 414.542 504.814 421.455C499.527 424.638 493.165 425.171 487.943 427.914C481.862 431.106 485.174 428.525 482.433 434.862C478.628 443.66 477.41 455.01 475.649 464.398C467.564 507.493 447.99 735.302 451.383 779.137C451.685 783.023 446.267 783.952 445.996 779.208C444.559 754.058 456.998 579.895 463.274 522.939C469.549 465.983 475.9 415.665 482.268 395.959C489.993 372.053 503.945 343.304 515.559 321.01C520.954 310.653 526.834 300.652 533.547 291.081Z" fill="#56919C"/><path id="Leaf_2" fill-rule="evenodd" clip-rule="evenodd" d="M575.471 570.427C590.168 559.637 606.077 580.002 592.777 590.794C585.425 596.759 577.738 594.637 573.411 589.666C570.602 593.09 567.973 596.67 565.446 599.694C557.749 608.909 550.474 618.344 543.521 627.999C529.078 648.057 516.7 669.248 503.758 690.052C490.987 710.584 478.317 731.221 466.741 752.273C456.934 770.109 443.863 791.092 440.505 810.645C445.6 769.175 464.93 729.315 487.949 692.756C510.781 656.498 536.983 616.899 572.335 588.285C568.737 582.993 568.637 575.441 575.471 570.427Z" fill="#C1DEE2"/><path id="Leaf_3" fill-rule="evenodd" clip-rule="evenodd" d="M296.572 469.289C304.796 470.897 318.236 489.503 325.015 496.592C333.072 505.016 340.382 513.995 347.273 523.403C362.106 543.653 375.372 565.182 386.653 587.634C405.044 624.235 419.777 661.807 430.469 701.664C437.015 726.061 441.252 751.348 443.764 776.459C444.238 781.194 449.203 817.705 442.049 818.69C435.614 819.576 437.602 790.966 437.291 787.074C433.782 743.169 423.27 700.45 408.649 659.067C405.464 650.053 402.505 639.011 397.411 630.899C393.744 625.055 397.385 627.093 390.939 624.882C385.404 622.982 379.098 623.446 373.43 621.12C361.118 616.071 351.259 606.268 342.617 596.408C325.822 577.246 312.513 556.516 305.576 531.963C301.728 518.349 298.191 504.656 296.229 490.621C295.721 486.993 291.274 468.253 296.572 469.289Z" fill="#56919C"/><path id="Leaf_4" fill-rule="evenodd" clip-rule="evenodd" d="M329.029 159.726C360.01 213.455 385.469 272.475 401.908 332.253C411.868 368.472 418.833 405.638 425.754 442.535C436.469 499.667 446.605 556.794 449.488 614.94C452.389 673.423 458.124 740.876 438.974 797.204C448.54 740.016 439.433 679.143 437.82 621.599C437.05 594.129 434.817 566.927 431.887 539.617C429.045 513.125 424.401 486.759 420.076 460.475C417.97 447.675 415.757 434.893 413.505 422.119C412.833 418.308 412.548 406.998 410.131 404.395C407.698 401.774 395.283 400.705 391.385 398.783C383.536 394.909 376.153 389.408 369.619 383.595C357.094 372.452 346.197 357.891 337.596 343.538C317.697 310.328 309.741 269.798 310.143 231.336C310.221 223.869 322.23 143.454 317.407 142.347C317.697 142.007 317.972 141.656 318.231 141.29C321.883 147.404 325.466 153.56 329.029 159.726Z" fill="#89C5CC"/><path id="Leaf_5" fill-rule="evenodd" clip-rule="evenodd" d="M663.417 353.504C663.895 352.815 667.006 348.02 665.44 348.326C668.629 347.702 661.052 353.615 669 349.987C665.226 353.551 667.404 358.181 667.455 362.978C667.537 370.766 666.234 378.49 664.767 386.111C662.449 398.157 658.996 409.87 653.985 421.074C643.061 445.491 624.513 468.997 602.493 484.263C591.622 491.8 580.968 494.366 568.57 497.836C560.738 500.028 560.117 504.079 555.96 511.679C547.306 527.506 538.806 543.277 531.174 559.639C522.06 579.177 513.214 598.736 504.868 618.618C476.755 685.588 453.873 754.97 441.856 826.774C441.562 784.46 451.35 740.881 463.698 700.549C472.692 671.164 484.401 642.837 496.89 614.798C499.916 608.005 504.502 599.267 505.787 591.767C506.687 586.512 503.936 581.459 502.676 575.924C497.766 554.368 498.117 530.219 502.429 508.548C507.184 484.651 520.935 473.56 544.195 470.175C552.702 468.937 563.515 469.391 571.315 465.764C579.813 461.814 583.319 448.831 588.152 440.497C601.131 418.109 616.554 396.639 634.262 377.775C639.166 372.552 644.439 367.733 650.033 363.266C653.561 360.448 661.013 356.976 663.417 353.504Z" fill="#89C5CC"/><path id="Base" fill-rule="evenodd" clip-rule="evenodd" d="M395.942 788.776C395.344 784.718 398.489 781.075 402.591 781.075H485.141C489.243 781.075 492.388 784.718 491.789 788.776L485.409 832.04C483.464 845.229 472.146 855 458.815 855H428.917C415.585 855 404.268 845.229 402.323 832.04L395.942 788.776Z" fill="#C1DEE2"/></g></g></svg>