<svg width="431" height="341" viewBox="0 0 431 341" fill="none" xmlns="http://www.w3.org/2000/svg">
<rect width="431" height="341" fill="#F5F5F5"/>
<path d="M134.5 113.078V108.25C134.5 104.312 135 100.859 136 97.8906C137 94.8906 138.391 92.3906 140.172 90.3906C141.953 88.3906 144.031 86.8906 146.406 85.8906C148.781 84.8594 151.328 84.3438 154.047 84.3438C156.828 84.3438 159.406 84.8594 161.781 85.8906C164.156 86.8906 166.234 88.3906 168.016 90.3906C169.828 92.3906 171.234 94.8906 172.234 97.8906C173.234 100.859 173.734 104.312 173.734 108.25V113.078C173.734 117.016 173.234 120.484 172.234 123.484C171.234 126.453 169.844 128.938 168.062 130.938C166.281 132.938 164.203 134.438 161.828 135.438C159.453 136.438 156.891 136.938 154.141 136.938C151.391 136.938 148.828 136.438 146.453 135.438C144.078 134.438 141.984 132.938 140.172 130.938C138.391 128.938 137 126.453 136 123.484C135 120.484 134.5 117.016 134.5 113.078ZM142.797 108.25V113.078C142.797 115.859 143.078 118.297 143.641 120.391C144.203 122.484 145 124.234 146.031 125.641C147.062 127.047 148.266 128.109 149.641 128.828C151.016 129.516 152.516 129.859 154.141 129.859C156.016 129.859 157.656 129.516 159.062 128.828C160.5 128.109 161.688 127.047 162.625 125.641C163.562 124.234 164.266 122.484 164.734 120.391C165.203 118.297 165.438 115.859 165.438 113.078V108.25C165.438 105.469 165.156 103.047 164.594 100.984C164.031 98.8906 163.234 97.1406 162.203 95.7344C161.172 94.2969 159.953 93.2344 158.547 92.5469C157.172 91.8281 155.672 91.4688 154.047 91.4688C152.453 91.4688 150.969 91.8281 149.594 92.5469C148.219 93.2344 147.016 94.2969 145.984 95.7344C144.984 97.1406 144.203 98.8906 143.641 100.984C143.078 103.047 142.797 105.469 142.797 108.25ZM192.719 95.0312V155.5H184.422V85.2812H191.969L192.719 95.0312ZM221.078 108.344V113.078C221.078 117.078 220.703 120.578 219.953 123.578C219.234 126.547 218.156 129.031 216.719 131.031C215.312 133 213.578 134.484 211.516 135.484C209.453 136.453 207.094 136.938 204.438 136.938C201.781 136.938 199.469 136.438 197.5 135.438C195.562 134.406 193.922 132.922 192.578 130.984C191.266 129.047 190.219 126.719 189.438 124C188.688 121.25 188.172 118.172 187.891 114.766V107.547C188.172 103.953 188.688 100.734 189.438 97.8906C190.188 95.0156 191.219 92.5781 192.531 90.5781C193.875 88.5469 195.516 87 197.453 85.9375C199.422 84.875 201.719 84.3438 204.344 84.3438C207.062 84.3438 209.453 84.8125 211.516 85.75C213.609 86.6875 215.359 88.1406 216.766 90.1094C218.203 92.0469 219.281 94.5312 220 97.5625C220.719 100.562 221.078 104.156 221.078 108.344ZM212.781 113.078V108.344C212.781 105.531 212.562 103.078 212.125 100.984C211.719 98.8906 211.062 97.1562 210.156 95.7812C209.25 94.4062 208.109 93.375 206.734 92.6875C205.359 92 203.703 91.6562 201.766 91.6562C200.109 91.6562 198.641 92 197.359 92.6875C196.109 93.375 195.031 94.3125 194.125 95.5C193.219 96.6562 192.469 97.9844 191.875 99.4844C191.281 100.953 190.844 102.484 190.562 104.078V118.281C191.094 120.281 191.797 122.172 192.672 123.953C193.547 125.703 194.719 127.125 196.188 128.219C197.688 129.312 199.578 129.859 201.859 129.859C203.766 129.859 205.406 129.516 206.781 128.828C208.156 128.141 209.281 127.109 210.156 125.734C211.062 124.328 211.719 122.578 212.125 120.484C212.562 118.359 212.781 115.891 212.781 113.078ZM256.375 123.016C256.375 121.734 256.062 120.609 255.438 119.641C254.812 118.672 253.781 117.734 252.344 116.828C250.938 115.922 249.031 114.953 246.625 113.922C244.281 112.953 242.172 112 240.297 111.062C238.453 110.094 236.891 109.047 235.609 107.922C234.328 106.797 233.344 105.5 232.656 104.031C232 102.531 231.672 100.766 231.672 98.7344C231.672 96.7031 232.047 94.8281 232.797 93.1094C233.578 91.3594 234.672 89.8281 236.078 88.5156C237.484 87.2031 239.172 86.1875 241.141 85.4688C243.109 84.7188 245.312 84.3438 247.75 84.3438C251.219 84.3438 254.172 85.0156 256.609 86.3594C259.047 87.7031 260.906 89.5469 262.188 91.8906C263.5 94.2031 264.156 96.8125 264.156 99.7188H255.906C255.906 98.3125 255.594 96.9844 254.969 95.7344C254.344 94.4844 253.422 93.4688 252.203 92.6875C250.984 91.875 249.5 91.4688 247.75 91.4688C245.906 91.4688 244.406 91.7969 243.25 92.4531C242.094 93.1094 241.25 93.9688 240.719 95.0312C240.219 96.0625 239.969 97.2031 239.969 98.4531C239.969 99.3906 240.094 100.203 240.344 100.891C240.625 101.547 241.094 102.172 241.75 102.766C242.406 103.328 243.297 103.922 244.422 104.547C245.578 105.141 247.047 105.828 248.828 106.609C252.266 107.953 255.156 109.312 257.5 110.688C259.844 112.062 261.625 113.672 262.844 115.516C264.062 117.359 264.672 119.641 264.672 122.359C264.672 124.578 264.266 126.594 263.453 128.406C262.672 130.188 261.547 131.719 260.078 133C258.609 134.281 256.844 135.266 254.781 135.953C252.75 136.609 250.469 136.938 247.938 136.938C244.125 136.938 240.891 136.188 238.234 134.688C235.609 133.156 233.609 131.172 232.234 128.734C230.891 126.266 230.219 123.625 230.219 120.812H238.516C238.609 123.188 239.141 125.031 240.109 126.344C241.109 127.656 242.312 128.562 243.719 129.062C245.125 129.562 246.531 129.812 247.938 129.812C249.781 129.812 251.328 129.547 252.578 129.016C253.828 128.453 254.766 127.656 255.391 126.625C256.047 125.594 256.375 124.391 256.375 123.016ZM276.062 131.406C276.062 129.938 276.516 128.703 277.422 127.703C278.359 126.672 279.703 126.156 281.453 126.156C283.203 126.156 284.531 126.672 285.438 127.703C286.375 128.703 286.844 129.938 286.844 131.406C286.844 132.844 286.375 134.062 285.438 135.062C284.531 136.062 283.203 136.562 281.453 136.562C279.703 136.562 278.359 136.062 277.422 135.062C276.516 134.062 276.062 132.844 276.062 131.406ZM301.375 131.406C301.375 129.938 301.828 128.703 302.734 127.703C303.672 126.672 305.016 126.156 306.766 126.156C308.516 126.156 309.844 126.672 310.75 127.703C311.688 128.703 312.156 129.938 312.156 131.406C312.156 132.844 311.688 134.062 310.75 135.062C309.844 136.062 308.516 136.562 306.766 136.562C305.016 136.562 303.672 136.062 302.734 135.062C301.828 134.062 301.375 132.844 301.375 131.406ZM326.688 131.406C326.688 129.938 327.141 128.703 328.047 127.703C328.984 126.672 330.328 126.156 332.078 126.156C333.828 126.156 335.156 126.672 336.062 127.703C337 128.703 337.469 129.938 337.469 131.406C337.469 132.844 337 134.062 336.062 135.062C335.156 136.062 333.828 136.562 332.078 136.562C330.328 136.562 328.984 136.062 328.047 135.062C327.141 134.062 326.688 132.844 326.688 131.406Z" fill="#263238"/>
<path d="M136 97.8906L136.948 98.2098L136.949 98.2069L136 97.8906ZM146.406 85.8906L146.794 86.8123L146.805 86.8079L146.406 85.8906ZM161.781 85.8906L161.383 86.8079L161.393 86.8123L161.781 85.8906ZM168.016 90.3906L167.269 91.0557L167.275 91.0621L168.016 90.3906ZM172.234 97.8906L171.286 98.2069L171.287 98.2098L172.234 97.8906ZM172.234 123.484L173.182 123.804L173.183 123.801L172.234 123.484ZM140.172 130.938L139.425 131.603L139.431 131.609L140.172 130.938ZM136 123.484L135.051 123.801L135.052 123.804L136 123.484ZM149.641 128.828L149.177 129.714L149.185 129.719L149.193 129.723L149.641 128.828ZM159.062 128.828L159.502 129.727L159.51 129.723L159.062 128.828ZM164.594 100.984L163.628 101.244L163.629 101.247L164.594 100.984ZM162.203 95.7344L161.391 96.3173L161.397 96.3257L162.203 95.7344ZM158.547 92.5469L158.084 93.4331L158.096 93.4393L158.108 93.4453L158.547 92.5469ZM149.594 92.5469L150.041 93.4413L150.049 93.4373L150.057 93.4331L149.594 92.5469ZM145.984 95.7344L145.172 95.1515L145.169 95.1549L145.984 95.7344ZM143.641 100.984L144.605 101.247L144.606 101.244L143.641 100.984ZM135.5 113.078V108.25H133.5V113.078H135.5ZM135.5 108.25C135.5 104.394 135.99 101.053 136.948 98.2098L135.052 97.5714C134.01 100.666 133.5 104.231 133.5 108.25H135.5ZM136.949 98.2069C137.913 95.3127 139.242 92.9377 140.919 91.0557L139.425 89.7255C137.539 91.8435 136.087 94.4685 135.051 97.5744L136.949 98.2069ZM140.919 91.0557C142.605 89.1624 144.562 87.7522 146.794 86.8123L146.018 84.969C143.501 86.029 141.301 87.6189 139.425 89.7255L140.919 91.0557ZM146.805 86.8079C149.048 85.8339 151.458 85.3438 154.047 85.3438V83.3438C151.198 83.3438 148.515 83.8848 146.008 84.9734L146.805 86.8079ZM154.047 85.3438C156.701 85.3438 159.143 85.8352 161.383 86.8079L162.18 84.9734C159.67 83.8836 156.955 83.3438 154.047 83.3438V85.3438ZM161.393 86.8123C163.626 87.7522 165.583 89.1624 167.269 91.0557L168.762 89.7255C166.886 87.6189 164.687 86.029 162.169 84.969L161.393 86.8123ZM167.275 91.0621C168.979 92.9433 170.322 95.3161 171.286 98.2069L173.183 97.5744C172.147 94.4652 170.677 91.838 168.757 89.7191L167.275 91.0621ZM171.287 98.2098C172.244 101.053 172.734 104.394 172.734 108.25H174.734C174.734 104.231 174.224 100.666 173.182 97.5714L171.287 98.2098ZM172.734 108.25V113.078H174.734V108.25H172.734ZM172.734 113.078C172.734 116.933 172.245 120.292 171.286 123.168L173.183 123.801C174.224 120.677 174.734 117.098 174.734 113.078H172.734ZM171.287 123.165C170.322 126.028 168.994 128.389 167.316 130.272L168.809 131.603C170.694 129.486 172.146 126.879 173.182 123.804L171.287 123.165ZM167.316 130.272C165.629 132.166 163.672 133.576 161.44 134.516L162.216 136.359C164.734 135.299 166.933 133.709 168.809 131.603L167.316 130.272ZM161.44 134.516C159.196 135.461 156.766 135.938 154.141 135.938V137.938C157.015 137.938 159.71 137.414 162.216 136.359L161.44 134.516ZM154.141 135.938C151.515 135.938 149.085 135.461 146.841 134.516L146.065 136.359C148.571 137.414 151.266 137.938 154.141 137.938V135.938ZM146.841 134.516C144.607 133.575 142.632 132.163 140.913 130.266L139.431 131.609C141.337 133.712 143.549 135.3 146.065 136.359L146.841 134.516ZM140.919 130.272C139.241 128.389 137.912 126.028 136.948 123.165L135.052 123.804C136.088 126.879 137.54 129.486 139.425 131.603L140.919 130.272ZM136.949 123.168C135.99 120.292 135.5 116.933 135.5 113.078H133.5C133.5 117.098 134.01 120.677 135.051 123.801L136.949 123.168ZM141.797 108.25V113.078H143.797V108.25H141.797ZM141.797 113.078C141.797 115.924 142.084 118.452 142.675 120.65L144.606 120.131C144.072 118.142 143.797 115.795 143.797 113.078H141.797ZM142.675 120.65C143.262 122.835 144.105 124.705 145.225 126.232L146.838 125.049C145.895 123.764 145.144 122.133 144.606 120.131L142.675 120.65ZM145.225 126.232C146.335 127.746 147.651 128.916 149.177 129.714L150.104 127.942C148.88 127.302 147.79 126.348 146.838 125.049L145.225 126.232ZM149.193 129.723C150.715 130.483 152.369 130.859 154.141 130.859V128.859C152.662 128.859 151.316 128.548 150.088 127.934L149.193 129.723ZM154.141 130.859C156.138 130.859 157.934 130.493 159.502 129.727L158.623 127.93C157.378 128.538 155.893 128.859 154.141 128.859V130.859ZM159.51 129.723C161.111 128.922 162.428 127.739 163.457 126.195L161.793 125.086C160.947 126.355 159.889 127.297 158.615 127.934L159.51 129.723ZM163.457 126.195C164.478 124.663 165.222 122.792 165.71 120.609L163.759 120.172C163.31 122.177 162.647 123.805 161.793 125.086L163.457 126.195ZM165.71 120.609C166.199 118.426 166.438 115.912 166.438 113.078H164.438C164.438 115.806 164.207 118.168 163.759 120.172L165.71 120.609ZM166.438 113.078V108.25H164.438V113.078H166.438ZM166.438 108.25C166.438 105.405 166.15 102.891 165.559 100.721L163.629 101.247C164.162 103.203 164.438 105.533 164.438 108.25H166.438ZM165.56 100.725C164.972 98.5397 164.129 96.6701 163.01 95.143L161.397 96.3257C162.339 97.6112 163.09 99.2416 163.628 101.244L165.56 100.725ZM163.016 95.1515C161.901 93.5973 160.559 92.4177 158.986 91.6485L158.108 93.4453C159.347 94.0511 160.443 94.9965 161.391 96.3173L163.016 95.1515ZM159.01 91.6606C157.485 90.8636 155.825 90.4688 154.047 90.4688V92.4688C155.518 92.4688 156.858 92.7927 158.084 93.4331L159.01 91.6606ZM154.047 90.4688C152.296 90.4688 150.652 90.8651 149.13 91.6606L150.057 93.4331C151.285 92.7912 152.61 92.4688 154.047 92.4688V90.4688ZM149.147 91.6524C147.606 92.4229 146.283 93.602 145.172 95.1515L146.797 96.3173C147.748 94.9917 148.832 94.0459 150.041 93.4413L149.147 91.6524ZM145.169 95.1549C144.085 96.6792 143.261 98.5446 142.675 100.725L144.606 101.244C145.146 99.2367 145.883 97.602 146.799 96.3139L145.169 95.1549ZM142.676 100.721C142.084 102.891 141.797 105.405 141.797 108.25H143.797C143.797 105.533 144.072 103.203 144.605 101.247L142.676 100.721ZM192.719 95.0312H193.719V94.9928L193.716 94.9546L192.719 95.0312ZM192.719 155.5V156.5H193.719V155.5H192.719ZM184.422 155.5H183.422V156.5H184.422V155.5ZM184.422 85.2812V84.2812H183.422V85.2812H184.422ZM191.969 85.2812L192.966 85.2046L192.895 84.2812H191.969V85.2812ZM219.953 123.578L218.983 123.336L218.981 123.343L219.953 123.578ZM216.719 131.031L215.907 130.448L215.905 130.45L216.719 131.031ZM211.516 135.484L211.941 136.39L211.952 136.384L211.516 135.484ZM197.5 135.438L197.03 136.32L197.039 136.325L197.047 136.329L197.5 135.438ZM192.578 130.984L191.75 131.545L191.756 131.554L192.578 130.984ZM189.438 124L188.473 124.263L188.476 124.276L189.438 124ZM187.891 114.766H186.891V114.807L186.894 114.848L187.891 114.766ZM187.891 107.547L186.894 107.469L186.891 107.508V107.547H187.891ZM189.438 97.8906L190.404 98.1456L190.405 98.143L189.438 97.8906ZM192.531 90.5781L191.697 90.0264L191.695 90.0295L192.531 90.5781ZM197.453 85.9375L196.978 85.0575L196.972 85.0607L197.453 85.9375ZM211.516 85.75L211.102 86.6604L211.107 86.6627L211.516 85.75ZM216.766 90.1094L215.952 90.6906L215.957 90.698L215.963 90.7052L216.766 90.1094ZM220 97.5625L219.027 97.7932L219.028 97.7955L220 97.5625ZM212.125 100.984L211.143 101.175L211.145 101.182L211.146 101.189L212.125 100.984ZM197.359 92.6875L196.887 91.8063L196.877 91.8113L197.359 92.6875ZM194.125 95.5L194.912 96.1169L194.92 96.1067L194.125 95.5ZM191.875 99.4844L192.802 99.8592L192.805 99.8524L191.875 99.4844ZM190.562 104.078L189.578 103.904L189.562 103.991V104.078H190.562ZM190.562 118.281H189.562V118.412L189.596 118.538L190.562 118.281ZM192.672 123.953L191.774 124.394L191.777 124.4L192.672 123.953ZM196.188 128.219L195.59 129.021L195.598 129.027L196.188 128.219ZM210.156 125.734L209.316 125.193L209.313 125.197L210.156 125.734ZM212.125 120.484L211.145 120.283L211.143 120.294L212.125 120.484ZM191.719 95.0312V155.5H193.719V95.0312H191.719ZM192.719 154.5H184.422V156.5H192.719V154.5ZM185.422 155.5V85.2812H183.422V155.5H185.422ZM184.422 86.2812H191.969V84.2812H184.422V86.2812ZM190.972 85.3579L191.722 95.1079L193.716 94.9546L192.966 85.2046L190.972 85.3579ZM220.078 108.344V113.078H222.078V108.344H220.078ZM220.078 113.078C220.078 117.019 219.708 120.434 218.983 123.336L220.923 123.821C221.698 120.722 222.078 117.137 222.078 113.078H220.078ZM218.981 123.343C218.286 126.215 217.253 128.574 215.907 130.448L217.531 131.615C219.059 129.488 220.183 126.878 220.925 123.813L218.981 123.343ZM215.905 130.45C214.59 132.29 212.983 133.662 211.079 134.585L211.952 136.384C214.173 135.307 216.035 133.71 217.532 131.612L215.905 130.45ZM211.09 134.579C209.181 135.476 206.971 135.938 204.438 135.938V137.938C207.216 137.938 209.725 137.43 211.941 136.39L211.09 134.579ZM204.438 135.938C201.907 135.938 199.756 135.462 197.953 134.546L197.047 136.329C199.182 137.413 201.655 137.938 204.438 137.938V135.938ZM197.97 134.555C196.183 133.604 194.66 132.231 193.4 130.414L191.756 131.554C193.184 133.613 194.942 135.209 197.03 136.32L197.97 134.555ZM193.406 130.424C192.164 128.589 191.157 126.362 190.399 123.724L188.476 124.276C189.281 127.076 190.368 129.504 191.75 131.545L193.406 130.424ZM190.402 123.737C189.671 121.056 189.164 118.04 188.887 114.683L186.894 114.848C187.179 118.304 187.704 121.444 188.473 124.263L190.402 123.737ZM188.891 114.766V107.547H186.891V114.766H188.891ZM188.888 107.625C189.165 104.078 189.673 100.92 190.404 98.1456L188.471 97.6356C187.702 100.549 187.179 103.828 186.894 107.469L188.888 107.625ZM190.405 98.143C191.134 95.3489 192.127 93.0169 193.367 91.1268L191.695 90.0295C190.311 92.1393 189.241 94.6824 188.47 97.6382L190.405 98.143ZM193.365 91.1299C194.629 89.2199 196.153 87.791 197.934 86.8143L196.972 85.0607C194.878 86.209 193.121 87.8738 191.697 90.0264L193.365 91.1299ZM197.928 86.8175C199.727 85.8464 201.856 85.3438 204.344 85.3438V83.3438C201.582 83.3438 199.116 83.9036 196.978 85.0575L197.928 86.8175ZM204.344 85.3438C206.948 85.3438 209.193 85.7925 211.102 86.6604L211.929 84.8396C209.714 83.8325 207.177 83.3438 204.344 83.3438V85.3438ZM211.107 86.6627C213.03 87.5236 214.643 88.8581 215.952 90.6906L217.579 89.5281C216.076 87.4231 214.189 85.8514 211.924 84.8373L211.107 86.6627ZM215.963 90.7052C217.299 92.507 218.331 94.8571 219.027 97.7932L220.973 97.3318C220.232 94.2054 219.107 91.5867 217.569 89.5135L215.963 90.7052ZM219.028 97.7955C219.723 100.698 220.078 104.209 220.078 108.344H222.078C222.078 104.104 221.715 100.427 220.972 97.3295L219.028 97.7955ZM213.781 113.078V108.344H211.781V113.078H213.781ZM213.781 108.344C213.781 105.483 213.559 102.958 213.104 100.78L211.146 101.189C211.566 103.198 211.781 105.58 211.781 108.344H213.781ZM213.107 100.794C212.683 98.6079 211.987 96.7422 210.991 95.2309L209.321 96.3316C210.138 97.5703 210.755 99.1733 211.143 101.175L213.107 100.794ZM210.991 95.2309C209.995 93.72 208.725 92.5648 207.182 91.7931L206.287 93.5819C207.494 94.1852 208.505 95.0925 209.321 96.3316L210.991 95.2309ZM207.182 91.7931C205.636 91.0205 203.819 90.6562 201.766 90.6562V92.6562C203.587 92.6562 205.082 92.9795 206.287 93.5819L207.182 91.7931ZM201.766 90.6562C199.968 90.6562 198.332 91.0306 196.887 91.8063L197.832 93.5687C198.949 92.9694 200.251 92.6562 201.766 92.6562V90.6562ZM196.877 91.8113C195.5 92.569 194.317 93.6005 193.33 94.8933L194.92 96.1067C195.746 95.0245 196.719 94.181 197.841 93.5637L196.877 91.8113ZM193.338 94.8831C192.367 96.122 191.571 97.5356 190.945 99.1163L192.805 99.8524C193.367 98.4331 194.071 97.1905 194.912 96.1169L193.338 94.8831ZM190.948 99.1096C190.327 100.645 189.871 102.243 189.578 103.904L191.547 104.252C191.817 102.726 192.235 101.262 192.802 99.8592L190.948 99.1096ZM189.562 104.078V118.281H191.562V104.078H189.562ZM189.596 118.538C190.143 120.599 190.869 122.551 191.774 124.394L193.569 123.512C192.725 121.792 192.044 119.964 191.529 118.025L189.596 118.538ZM191.777 124.4C192.717 126.28 193.988 127.827 195.59 129.021L196.785 127.417C195.45 126.423 194.376 125.126 193.566 123.506L191.777 124.4ZM195.598 129.027C197.305 130.271 199.416 130.859 201.859 130.859V128.859C199.741 128.859 198.07 128.354 196.777 127.411L195.598 129.027ZM201.859 130.859C203.884 130.859 205.685 130.494 207.228 129.723L206.334 127.934C205.127 128.537 203.647 128.859 201.859 128.859V130.859ZM207.228 129.723C208.775 128.949 210.034 127.79 211 126.271L209.313 125.197C208.529 126.429 207.537 127.332 206.334 127.934L207.228 129.723ZM210.997 126.276C211.988 124.738 212.683 122.861 213.107 120.675L211.143 120.294C210.755 122.296 210.137 123.918 209.316 125.193L210.997 126.276ZM213.104 120.686C213.559 118.479 213.781 115.94 213.781 113.078H211.781C211.781 115.842 211.566 118.24 211.146 120.283L213.104 120.686ZM252.344 116.828L251.802 117.669L251.81 117.674L252.344 116.828ZM246.625 113.922L247.019 113.003L247.007 112.998L246.625 113.922ZM240.297 111.062L239.832 111.948L239.841 111.952L239.85 111.957L240.297 111.062ZM232.656 104.031L231.74 104.432L231.745 104.444L231.751 104.455L232.656 104.031ZM232.797 93.1094L231.884 92.7017L231.88 92.7094L232.797 93.1094ZM241.141 85.4688L241.484 86.4082L241.497 86.4032L241.141 85.4688ZM262.188 91.8906L261.31 92.3703L261.314 92.3773L261.318 92.3842L262.188 91.8906ZM264.156 99.7188V100.719H265.156V99.7188H264.156ZM255.906 99.7188H254.906V100.719H255.906V99.7188ZM252.203 92.6875L251.648 93.5196L251.656 93.5245L251.663 93.5294L252.203 92.6875ZM240.719 95.0312L239.824 94.584L239.819 94.595L240.719 95.0312ZM240.344 100.891L239.404 101.232L239.414 101.259L239.425 101.285L240.344 100.891ZM241.75 102.766L241.079 103.507L241.089 103.516L241.099 103.525L241.75 102.766ZM244.422 104.547L243.936 105.421L243.951 105.429L243.965 105.436L244.422 104.547ZM248.828 106.609L248.426 107.525L248.445 107.533L248.464 107.541L248.828 106.609ZM263.453 128.406L262.541 127.997L262.537 128.005L263.453 128.406ZM254.781 135.953L255.089 136.905L255.097 136.902L254.781 135.953ZM238.234 134.688L237.73 135.551L237.743 135.558L238.234 134.688ZM232.234 128.734L231.356 129.212L231.36 129.219L231.363 129.226L232.234 128.734ZM230.219 120.812V119.812H229.219V120.812H230.219ZM238.516 120.812L239.515 120.773L239.477 119.812H238.516V120.812ZM240.109 126.344L239.305 126.938L239.309 126.944L239.314 126.95L240.109 126.344ZM252.578 129.016L252.969 129.936L252.979 129.932L252.988 129.928L252.578 129.016ZM255.391 126.625L254.547 126.088L254.541 126.097L254.535 126.107L255.391 126.625ZM257.375 123.016C257.375 121.564 257.018 120.247 256.278 119.098L254.597 120.183C255.107 120.972 255.375 121.905 255.375 123.016H257.375ZM256.278 119.098C255.545 117.963 254.384 116.932 252.877 115.982L251.81 117.674C253.178 118.536 254.08 119.38 254.597 120.183L256.278 119.098ZM252.885 115.988C251.414 115.039 249.451 114.045 247.019 113.003L246.231 114.841C248.611 115.861 250.461 116.805 251.802 117.669L252.885 115.988ZM247.007 112.998C244.681 112.036 242.594 111.093 240.744 110.168L239.85 111.957C241.75 112.907 243.882 113.87 246.243 114.846L247.007 112.998ZM240.762 110.177C238.973 109.237 237.48 108.233 236.269 107.17L234.95 108.673C236.302 109.86 237.933 110.95 239.832 111.948L240.762 110.177ZM236.269 107.17C235.086 106.132 234.188 104.945 233.562 103.607L231.751 104.455C232.5 106.055 233.57 107.462 234.95 108.673L236.269 107.17ZM233.572 103.63C232.983 102.283 232.672 100.66 232.672 98.7344H230.672C230.672 100.871 231.017 102.779 231.74 104.432L233.572 103.63ZM232.672 98.7344C232.672 96.8292 233.023 95.0917 233.713 93.5093L231.88 92.7094C231.071 94.5645 230.672 96.5771 230.672 98.7344H232.672ZM233.71 93.517C234.437 91.8896 235.452 90.4683 236.76 89.2467L235.396 87.7846C233.892 89.188 232.72 90.8291 231.884 92.7017L233.71 93.517ZM236.76 89.2467C238.06 88.0336 239.629 87.085 241.484 86.4081L240.798 84.5294C238.714 85.29 236.909 86.3727 235.396 87.7846L236.76 89.2467ZM241.497 86.4032C243.335 85.7028 245.415 85.3438 247.75 85.3438V83.3438C245.21 83.3438 242.883 83.7347 240.785 84.5343L241.497 86.4032ZM247.75 85.3438C251.091 85.3438 253.869 85.9906 256.127 87.2351L257.092 85.4836C254.475 84.0407 251.347 83.3438 247.75 83.3438V85.3438ZM256.127 87.2351C258.405 88.4911 260.124 90.2006 261.31 92.3703L263.065 91.411C261.689 88.8931 259.689 86.9151 257.092 85.4836L256.127 87.2351ZM261.318 92.3842C262.537 94.5325 263.156 96.969 263.156 99.7188H265.156C265.156 96.656 264.463 93.8738 263.057 91.397L261.318 92.3842ZM264.156 98.7188H255.906V100.719H264.156V98.7188ZM256.906 99.7188C256.906 98.1583 256.558 96.6769 255.863 95.2872L254.074 96.1816C254.629 97.2918 254.906 98.4667 254.906 99.7188H256.906ZM255.863 95.2872C255.155 93.8701 254.107 92.7204 252.743 91.8456L251.663 93.5294C252.736 94.2171 253.533 95.0986 254.074 96.1816L255.863 95.2872ZM252.758 91.8554C251.345 90.9136 249.658 90.4688 247.75 90.4688V92.4688C249.342 92.4688 250.624 92.8364 251.648 93.5196L252.758 91.8554ZM247.75 90.4688C245.797 90.4688 244.11 90.815 242.756 91.5834L243.744 93.3228C244.702 92.7787 246.016 92.4688 247.75 92.4688V90.4688ZM242.756 91.5834C241.449 92.3255 240.455 93.3233 239.824 94.584L241.613 95.4785C242.045 94.6142 242.739 93.8932 243.744 93.3228L242.756 91.5834ZM239.819 94.595C239.247 95.7742 238.969 97.0659 238.969 98.4531H240.969C240.969 97.3403 241.19 96.3508 241.619 95.4675L239.819 94.595ZM238.969 98.4531C238.969 99.4759 239.105 100.409 239.404 101.232L241.284 100.549C241.083 99.9969 240.969 99.3053 240.969 98.4531H238.969ZM239.425 101.285C239.774 102.101 240.341 102.839 241.079 103.507L242.421 102.024C241.847 101.504 241.476 100.993 241.263 100.497L239.425 101.285ZM241.099 103.525C241.825 104.147 242.778 104.778 243.936 105.421L244.908 103.673C243.816 103.066 242.988 102.509 242.401 102.006L241.099 103.525ZM243.965 105.436C245.146 106.043 246.635 106.739 248.426 107.525L249.23 105.694C247.459 104.917 246.01 104.238 244.879 103.657L243.965 105.436ZM248.464 107.541C251.869 108.872 254.708 110.209 256.994 111.55L258.006 109.825C255.604 108.416 252.663 107.035 249.192 105.678L248.464 107.541ZM256.994 111.55C259.236 112.865 260.892 114.377 262.01 116.067L263.678 114.964C262.358 112.967 260.452 111.26 258.006 109.825L256.994 111.55ZM262.01 116.067C263.098 117.713 263.672 119.791 263.672 122.359H265.672C265.672 119.49 265.027 117.006 263.678 114.964L262.01 116.067ZM263.672 122.359C263.672 124.454 263.289 126.328 262.541 127.997L264.366 128.815C265.242 126.86 265.672 124.703 265.672 122.359H263.672ZM262.537 128.005C261.815 129.651 260.779 131.062 259.421 132.246L260.735 133.754C262.315 132.376 263.528 130.724 264.369 128.808L262.537 128.005ZM259.421 132.246C258.063 133.431 256.417 134.354 254.465 135.004L255.097 136.902C257.271 136.177 259.156 135.131 260.735 133.754L259.421 132.246ZM254.474 135.002C252.558 135.62 250.383 135.938 247.938 135.938V137.938C250.554 137.938 252.942 137.598 255.089 136.905L254.474 135.002ZM247.938 135.938C244.255 135.938 241.199 135.213 238.726 133.817L237.743 135.558C240.582 137.162 243.995 137.938 247.938 137.938V135.938ZM238.738 133.824C236.253 132.374 234.386 130.513 233.105 128.243L231.363 129.226C232.833 131.831 234.966 133.939 237.731 135.551L238.738 133.824ZM233.113 128.256C231.849 125.934 231.219 123.458 231.219 120.812H229.219C229.219 123.792 229.932 126.597 231.356 129.212L233.113 128.256ZM230.219 121.812H238.516V119.812H230.219V121.812ZM237.516 120.852C237.615 123.34 238.174 125.406 239.305 126.938L240.914 125.75C240.107 124.657 239.604 123.035 239.515 120.773L237.516 120.852ZM239.314 126.95C240.419 128.4 241.776 129.433 243.384 130.005L244.054 128.12C242.849 127.692 241.8 126.913 240.905 125.738L239.314 126.95ZM243.384 130.005C244.891 130.541 246.41 130.812 247.938 130.812V128.812C246.652 128.812 245.359 128.584 244.054 128.12L243.384 130.005ZM247.938 130.812C249.87 130.812 251.56 130.535 252.969 129.936L252.187 128.095C251.096 128.559 249.692 128.812 247.938 128.812V130.812ZM252.988 129.928C254.397 129.294 255.502 128.371 256.246 127.143L254.535 126.107C254.029 126.942 253.259 127.613 252.168 128.104L252.988 129.928ZM256.234 127.162C257.005 125.951 257.375 124.556 257.375 123.016H255.375C255.375 124.225 255.089 125.237 254.547 126.088L256.234 127.162ZM277.422 127.703L276.682 127.03L276.681 127.032L277.422 127.703ZM285.438 127.703L284.686 128.363L284.697 128.375L284.708 128.387L285.438 127.703ZM285.438 135.062L284.708 134.379L284.702 134.385L284.697 134.391L285.438 135.062ZM277.422 135.062L276.681 135.734L276.687 135.74L276.692 135.746L277.422 135.062ZM277.062 131.406C277.062 130.162 277.439 129.174 278.163 128.375L276.681 127.032C275.593 128.232 275.062 129.713 275.062 131.406H277.062ZM278.162 128.376C278.863 127.604 279.908 127.156 281.453 127.156V125.156C279.499 125.156 277.855 125.74 276.682 127.03L278.162 128.376ZM281.453 127.156C283 127.156 284.019 127.604 284.686 128.363L286.189 127.043C285.043 125.739 283.406 125.156 281.453 125.156V127.156ZM284.708 128.387C285.459 129.188 285.844 130.172 285.844 131.406H287.844C287.844 129.703 287.291 128.219 286.167 127.019L284.708 128.387ZM285.844 131.406C285.844 132.603 285.463 133.574 284.708 134.379L286.167 135.746C287.287 134.551 287.844 133.084 287.844 131.406H285.844ZM284.697 134.391C284.032 135.124 283.01 135.562 281.453 135.562V137.562C283.397 137.562 285.03 137.001 286.178 135.734L284.697 134.391ZM281.453 135.562C279.898 135.562 278.851 135.125 278.151 134.379L276.692 135.746C277.868 137 279.508 137.562 281.453 137.562V135.562ZM278.163 134.391C277.435 133.588 277.062 132.613 277.062 131.406H275.062C275.062 133.074 275.596 134.537 276.681 135.734L278.163 134.391ZM302.734 127.703L301.994 127.03L301.993 127.032L302.734 127.703ZM310.75 127.703L309.999 128.363L310.009 128.375L310.02 128.387L310.75 127.703ZM310.75 135.062L310.02 134.379L310.015 134.385L310.009 134.391L310.75 135.062ZM302.734 135.062L301.993 135.734L301.999 135.74L302.005 135.746L302.734 135.062ZM302.375 131.406C302.375 130.162 302.751 129.174 303.475 128.375L301.993 127.032C300.905 128.232 300.375 129.713 300.375 131.406H302.375ZM303.474 128.376C304.176 127.604 305.22 127.156 306.766 127.156V125.156C304.811 125.156 303.168 125.74 301.994 127.03L303.474 128.376ZM306.766 127.156C308.313 127.156 309.332 127.604 309.999 128.363L311.501 127.043C310.356 125.739 308.719 125.156 306.766 125.156V127.156ZM310.02 128.387C310.771 129.188 311.156 130.172 311.156 131.406H313.156C313.156 129.703 312.604 128.219 311.48 127.019L310.02 128.387ZM311.156 131.406C311.156 132.603 310.775 133.574 310.02 134.379L311.48 135.746C312.6 134.551 313.156 133.084 313.156 131.406H311.156ZM310.009 134.391C309.345 135.124 308.322 135.562 306.766 135.562V137.562C308.709 137.562 310.343 137.001 311.491 135.734L310.009 134.391ZM306.766 135.562C305.211 135.562 304.163 135.125 303.464 134.379L302.005 135.746C303.18 137 304.82 137.562 306.766 137.562V135.562ZM303.475 134.391C302.747 133.588 302.375 132.613 302.375 131.406H300.375C300.375 133.074 300.909 134.537 301.993 135.734L303.475 134.391ZM328.047 127.703L327.307 127.03L327.306 127.032L328.047 127.703ZM336.062 127.703L335.311 128.363L335.322 128.375L335.333 128.387L336.062 127.703ZM336.062 135.062L335.333 134.379L335.327 134.385L335.322 134.391L336.062 135.062ZM328.047 135.062L327.306 135.734L327.312 135.74L327.317 135.746L328.047 135.062ZM327.688 131.406C327.688 130.162 328.064 129.174 328.788 128.375L327.306 127.032C326.218 128.232 325.688 129.713 325.688 131.406H327.688ZM328.787 128.376C329.488 127.604 330.533 127.156 332.078 127.156V125.156C330.124 125.156 328.48 125.74 327.307 127.03L328.787 128.376ZM332.078 127.156C333.625 127.156 334.644 127.604 335.311 128.363L336.814 127.043C335.668 125.739 334.031 125.156 332.078 125.156V127.156ZM335.333 128.387C336.084 129.188 336.469 130.172 336.469 131.406H338.469C338.469 129.703 337.916 128.219 336.792 127.019L335.333 128.387ZM336.469 131.406C336.469 132.603 336.088 133.574 335.333 134.379L336.792 135.746C337.912 134.551 338.469 133.084 338.469 131.406H336.469ZM335.322 134.391C334.657 135.124 333.635 135.562 332.078 135.562V137.562C334.022 137.562 335.655 137.001 336.803 135.734L335.322 134.391ZM332.078 135.562C330.523 135.562 329.476 135.125 328.776 134.379L327.317 135.746C328.493 137 330.133 137.562 332.078 137.562V135.562ZM328.788 134.391C328.06 133.588 327.688 132.613 327.688 131.406H325.688C325.688 133.074 326.221 134.537 327.306 135.734L328.788 134.391Z" fill="#263238"/>
<path d="M28.7354 291.001H19.5554" stroke="#263238" stroke-width="1.1133" stroke-miterlimit="10"/>
<path d="M400.575 291.001H43.2554" stroke="#263238" stroke-width="1.1133" stroke-miterlimit="10"/>
<path d="M194.876 329.381C211.66 329.381 225.266 325.638 225.266 321.021C225.266 316.404 211.66 312.661 194.876 312.661C178.092 312.661 164.486 316.404 164.486 321.021C164.486 325.638 178.092 329.381 194.876 329.381Z" fill="#263238"/>
<path d="M37.8056 340.011C6.17557 340.011 1.50557 335.441 1.04557 331.751C0.941107 330.982 1.01683 330.2 1.26675 329.466C1.51667 328.732 1.93394 328.066 2.48557 327.521C11.0056 318.581 60.1056 322.361 128.046 327.591C137.526 328.321 147.326 329.071 157.376 329.821C226.026 334.921 253.666 334.261 259.376 327.361C260.536 325.951 260.776 324.191 260.136 321.811C257.416 311.861 221.056 311.811 207.286 312.591C206.97 312.607 206.662 312.499 206.426 312.289C206.19 312.08 206.046 311.786 206.026 311.471C206.016 311.315 206.038 311.159 206.089 311.011C206.14 310.864 206.22 310.728 206.325 310.612C206.429 310.496 206.555 310.401 206.696 310.334C206.837 310.267 206.99 310.228 207.146 310.221C212.416 309.911 258.716 307.581 262.426 321.221C263.276 324.361 262.886 326.871 261.206 328.911C254.796 336.691 228.556 337.521 157.206 332.221C147.146 331.471 137.346 330.721 127.866 329.991C63.1056 324.991 11.9456 321.061 4.20557 329.191C3.89955 329.481 3.66731 329.841 3.52816 330.239C3.38902 330.637 3.34699 331.063 3.40557 331.481C3.69557 333.841 9.40557 339.121 55.4056 337.281C81.1356 336.281 106.986 333.451 107.246 333.421C107.547 333.409 107.841 333.511 108.07 333.708C108.298 333.904 108.443 334.18 108.476 334.48C108.509 334.779 108.428 335.08 108.247 335.321C108.067 335.563 107.802 335.727 107.506 335.781C107.246 335.781 81.3156 338.621 55.5056 339.651C48.8656 339.891 42.9856 340.011 37.8056 340.011Z" fill="white" stroke="#263238" stroke-width="1.1133" stroke-miterlimit="10"/>
<path d="M183.576 328.361C203.353 328.361 219.386 312.328 219.386 292.551C219.386 272.773 203.353 256.741 183.576 256.741C163.798 256.741 147.766 272.773 147.766 292.551C147.766 312.328 163.798 328.361 183.576 328.361Z" fill="white"/>
<mask id="mask0_0_1" style="mask-type:luminance" maskUnits="userSpaceOnUse" x="147" y="256" width="73" height="73">
<path d="M183.576 328.361C203.353 328.361 219.386 312.328 219.386 292.551C219.386 272.773 203.353 256.741 183.576 256.741C163.798 256.741 147.766 272.773 147.766 292.551C147.766 312.328 163.798 328.361 183.576 328.361Z" fill="white"/>
</mask>
<g mask="url(#mask0_0_1)">
<path d="M183.576 328.361C190.092 328.365 196.487 326.59 202.069 323.228C207.652 319.866 212.21 315.044 215.254 309.282C218.298 303.519 219.711 297.036 219.341 290.529C218.971 284.023 216.833 277.741 213.156 272.361C212.766 287.961 204.156 310.991 159.376 318.911C165.968 324.991 174.608 328.365 183.576 328.361Z" fill="#92E3A9"/>
<path opacity="0.3" d="M183.576 328.361C190.092 328.365 196.487 326.59 202.069 323.228C207.652 319.866 212.21 315.044 215.254 309.282C218.298 303.519 219.711 297.036 219.341 290.529C218.971 284.023 216.833 277.741 213.156 272.361C212.766 287.961 204.156 310.991 159.376 318.911C165.968 324.991 174.608 328.365 183.576 328.361Z" fill="white"/>
<path d="M201.196 306.591C194.81 300.378 187.055 295.751 178.556 293.081M201.196 306.591H203.096C207.31 302.413 210.94 297.683 213.886 292.531C197.116 274.811 180.806 276.621 180.806 276.621C180.806 276.621 197.166 274.811 213.936 292.551C214.856 290.901 215.626 289.351 216.256 287.921C209.276 278.141 197.256 271.471 190.806 270.471L189.306 270.111M201.196 306.591C186.466 306.381 175.266 304.101 166.896 301.051C167.436 278.431 175.506 263.361 179.726 256.981C181.07 256.825 182.422 256.745 183.776 256.741C185.006 256.741 186.206 256.811 187.406 256.921M189.306 270.111C186.994 269.691 184.628 269.657 182.306 270.011M189.306 270.111L193.576 258.111C191.558 257.534 189.493 257.136 187.406 256.921M187.406 256.921C184.636 261.391 177.506 275.671 177.506 304.001M209.286 299.301C195.026 285.401 179.286 284.671 179.286 284.671" stroke="#263238" stroke-width="1.1133" stroke-linecap="round" stroke-linejoin="round"/>
<path d="M166.856 301.111C167.396 278.491 175.466 263.421 179.686 257.041C176.384 257.411 173.149 258.239 170.076 259.501C162.497 270.619 158.215 283.654 157.726 297.101C160.662 298.669 163.714 300.009 166.856 301.111Z" stroke="#263238" stroke-width="1.1133" stroke-linecap="round" stroke-linejoin="round"/>
<path d="M170.076 259.471C163.891 262.02 158.543 266.248 154.635 271.676C150.726 277.105 148.413 283.517 147.956 290.191C150.9 292.898 154.184 295.211 157.726 297.071C158.215 283.624 162.497 270.589 170.076 259.471Z" stroke="#263238" stroke-width="1.1133" stroke-linecap="round" stroke-linejoin="round"/>
<path d="M216.206 287.921C216.985 286.199 217.653 284.428 218.206 282.621C216.711 277.521 214.105 272.815 210.576 268.841L207.806 278.081L210.526 268.841C208.317 266.363 205.776 264.203 202.976 262.421L199.926 273.831L202.996 262.471C200.068 260.598 196.88 259.166 193.536 258.221L189.266 270.221C195.806 271.161 205.916 275.011 216.206 287.921Z" stroke="#263238" stroke-width="1.1133" stroke-linecap="round" stroke-linejoin="round"/>
<path d="M185.556 320.201C189.722 317.681 193.696 314.857 197.446 311.751C199.496 310.031 203.256 306.621 203.376 306.621C203.256 306.621 210.436 298.521 212.816 294.291C212.816 294.351 213.876 292.611 213.816 292.551C213.756 292.491 214.676 291.041 214.616 290.981C215.198 290 215.707 288.978 216.136 287.921C216.915 286.199 217.583 284.428 218.136 282.621C219.091 285.889 219.575 289.276 219.576 292.681C219.576 293.241 219.576 293.721 219.576 294.241C204.456 315.471 192.806 324.571 185.476 328.561C184.886 328.561 184.286 328.561 183.676 328.561C180.009 328.561 176.363 328.001 172.866 326.901C177.221 324.914 181.458 322.677 185.556 320.201ZM185.556 320.201H185.816" stroke="#263238" stroke-width="1.1133" stroke-linecap="round" stroke-linejoin="round"/>
<path d="M219.576 294.241C204.456 315.471 192.806 324.571 185.536 328.471C194.451 328.022 202.879 324.266 209.173 317.936C215.467 311.607 219.176 303.158 219.576 294.241Z" stroke="#263238" stroke-width="1.1133" stroke-linecap="round" stroke-linejoin="round"/>
<path d="M155.696 315.041C160.133 320.619 166.131 324.748 172.926 326.901C177.281 324.914 181.518 322.677 185.616 320.201C177.076 321.781 163.716 317.861 155.696 315.041Z" stroke="#263238" stroke-width="1.1133" stroke-linecap="round" stroke-linejoin="round"/>
<path d="M185.616 320.201C189.782 317.681 193.756 314.857 197.506 311.751C171.716 314.391 155.806 306.401 149.046 301.861C150.321 306.669 152.586 311.158 155.696 315.041C163.716 317.861 177.076 321.781 185.616 320.201Z" stroke="#263238" stroke-width="1.1133" stroke-linecap="round" stroke-linejoin="round"/>
<path d="M201.196 306.611H203.096C201.406 308.311 199.556 310.031 197.506 311.751C171.716 314.391 155.806 306.401 149.046 301.881C148.257 298.885 147.857 295.799 147.856 292.701C147.856 291.871 147.896 291.061 147.956 290.241C150.136 292.291 154.566 296.871 166.856 301.131C175.266 304.121 186.466 306.401 201.196 306.611ZM201.196 306.611C201.336 306.741 201.476 306.871 201.606 307.011" stroke="#263238" stroke-width="1.1133" stroke-linecap="round" stroke-linejoin="round"/>
</g>
<path d="M183.576 328.361C203.353 328.361 219.386 312.328 219.386 292.551C219.386 272.773 203.353 256.741 183.576 256.741C163.798 256.741 147.766 272.773 147.766 292.551C147.766 312.328 163.798 328.361 183.576 328.361Z" stroke="#263238" stroke-width="1.1133" stroke-linecap="round" stroke-linejoin="round"/>
<path d="M320.795 231.351C320.795 231.351 318.345 223.401 311.205 220.541C306.205 218.541 300.535 219.081 295.385 219.971C285.805 221.641 277.445 225.451 268.385 228.701C268.385 228.701 272.265 227.271 288.175 235.031C294.035 237.881 300.735 240.101 307.435 239.951C312.805 239.831 321.065 238.291 320.795 231.351Z" fill="#92E3A9"/>
<path d="M321.655 207.981C321.655 207.981 321.655 199.651 315.655 194.861C311.475 191.521 305.855 190.371 300.655 189.741C290.995 188.571 281.895 189.801 272.255 190.291C272.255 190.291 276.385 190.051 289.375 202.071C294.165 206.491 299.945 210.551 306.375 212.341C311.555 213.781 319.895 214.701 321.655 207.981Z" fill="#92E3A9"/>
<path d="M338.065 238.891C338.065 238.891 331.575 233.681 331.555 225.991C331.555 220.641 334.125 215.531 336.855 211.081C341.935 202.781 348.555 196.421 354.935 189.171C354.935 189.171 352.175 192.251 353.515 209.901C354.015 216.401 353.595 223.451 350.985 229.621C348.935 234.581 344.465 241.691 338.065 238.891Z" fill="#92E3A9"/>
<path d="M361.065 251.671C361.065 251.671 360.145 243.401 365.565 237.941C369.325 234.151 374.775 232.351 379.845 231.131C389.305 228.851 398.485 229.021 408.115 228.391C408.115 228.391 403.995 228.621 392.475 242.061C388.235 247.061 382.965 251.711 376.755 254.241C371.805 256.271 363.625 258.141 361.065 251.671Z" fill="#92E3A9"/>
<path d="M359.595 222.181C359.595 222.181 351.345 221.051 347.385 214.461C344.625 209.881 344.215 204.161 344.265 198.941C344.365 189.221 346.785 180.351 348.535 170.861C348.535 170.861 347.745 174.921 357.965 189.371C361.725 194.701 364.965 200.961 365.965 207.601C366.675 212.931 366.485 221.321 359.595 222.181Z" fill="#92E3A9"/>
<path d="M383.335 207.371C383.335 207.371 389.265 213.211 396.905 212.371C402.215 211.761 406.995 208.591 411.095 205.371C418.735 199.371 424.285 192.031 430.735 184.861C430.735 184.861 428.005 187.951 410.315 188.681C403.805 188.951 396.855 190.181 391.025 193.501C386.345 196.121 379.815 201.391 383.335 207.371Z" fill="#92E3A9"/>
<path d="M376.465 201.601C376.465 201.601 384.745 202.431 390.145 196.961C393.905 193.151 395.645 187.691 396.815 182.601C398.995 173.131 398.735 163.941 399.255 154.311C399.255 154.311 399.075 158.431 385.745 170.091C380.845 174.381 376.195 179.701 373.745 185.931C371.755 190.941 369.965 199.141 376.465 201.601Z" fill="#92E3A9"/>
<path d="M346.895 282.211L332.595 247.021L316.105 206.331" stroke="#263238" stroke-width="1.1133" stroke-linecap="round" stroke-linejoin="round"/>
<path d="M350.195 276.161L364.485 227.231L379.885 196.991" stroke="#263238" stroke-width="1.1133" stroke-linecap="round" stroke-linejoin="round"/>
<path d="M355.685 256.921L369.985 248.671" stroke="#263238" stroke-width="1.1133" stroke-linecap="round" stroke-linejoin="round"/>
<path d="M364.485 227.231L357.335 211.281" stroke="#263238" stroke-width="1.1133" stroke-linecap="round" stroke-linejoin="round"/>
<path d="M373.435 211.361L390.875 203.581" stroke="#263238" stroke-width="1.1133" stroke-linecap="round" stroke-linejoin="round"/>
<path d="M335.345 253.621L341.395 229.431" stroke="#263238" stroke-width="1.1133" stroke-linecap="round" stroke-linejoin="round"/>
<path d="M327.325 235.231L313.355 227.781" stroke="#263238" stroke-width="1.1133" stroke-linecap="round" stroke-linejoin="round"/>
<path d="M354.225 299.801H342.305C340.357 299.8 338.47 299.119 336.969 297.876C335.468 296.633 334.449 294.905 334.085 292.991L329.845 270.661H366.685L362.455 292.991C362.09 294.906 361.068 296.634 359.566 297.877C358.064 299.12 356.175 299.8 354.225 299.801Z" fill="#263238" stroke="#263238" stroke-width="1.1133" stroke-linecap="round" stroke-linejoin="round"/>
<path d="M58.5974 252.751C36.3374 252.751 22.9574 233.001 18.2074 215.631L18.0474 215.021C17.7944 214.179 17.7138 213.294 17.8104 212.42C17.9071 211.546 18.1791 210.7 18.6102 209.933C19.0412 209.167 19.6225 208.495 20.3191 207.958C21.0157 207.422 21.8135 207.031 22.6646 206.809C23.5158 206.588 24.4028 206.541 25.2727 206.67C26.1426 206.799 26.9775 207.103 27.7274 207.562C28.4773 208.022 29.1268 208.628 29.6372 209.344C30.1475 210.06 30.5081 210.872 30.6974 211.731L30.8174 212.181C34.4274 225.401 44.2574 240.511 60.0274 239.641C62.9928 239.538 65.9035 238.813 68.5703 237.512C71.2372 236.211 73.6007 234.364 75.5074 232.091C84.1574 222.171 88.0274 200.601 87.1674 189.721C87.086 189.023 87.1462 188.315 87.3444 187.641C87.5425 186.966 87.8746 186.339 88.3207 185.796C88.7669 185.252 89.3179 184.805 89.941 184.479C90.564 184.154 91.2463 183.958 91.947 183.902C92.6477 183.846 93.3524 183.932 94.0191 184.155C94.6858 184.377 95.3008 184.732 95.8273 185.198C96.3538 185.663 96.781 186.231 97.0834 186.865C97.3859 187.5 97.5573 188.189 97.5874 188.891C98.5874 201.001 97.2674 227.031 85.3574 240.681C82.309 244.27 78.5504 247.189 74.3184 249.255C70.0863 251.32 65.4725 252.486 60.7674 252.681C60.0374 252.731 59.3074 252.751 58.5974 252.751Z" fill="white"/>
<mask id="mask1_0_1" style="mask-type:luminance" maskUnits="userSpaceOnUse" x="17" y="183" width="81" height="70">
<path d="M58.5974 252.751C36.3374 252.751 22.9574 233.001 18.2074 215.631L18.0474 215.021C17.7944 214.179 17.7138 213.294 17.8104 212.42C17.9071 211.546 18.1791 210.7 18.6102 209.933C19.0412 209.167 19.6225 208.495 20.3191 207.958C21.0157 207.422 21.8135 207.031 22.6646 206.809C23.5158 206.588 24.4028 206.541 25.2727 206.67C26.1426 206.799 26.9775 207.103 27.7274 207.562C28.4773 208.022 29.1268 208.628 29.6372 209.344C30.1475 210.06 30.5081 210.872 30.6974 211.731L30.8174 212.181C34.4274 225.401 44.2574 240.511 60.0274 239.641C62.9928 239.538 65.9035 238.813 68.5703 237.512C71.2372 236.211 73.6007 234.364 75.5074 232.091C84.1574 222.171 88.0274 200.601 87.1674 189.721C87.086 189.023 87.1462 188.315 87.3444 187.641C87.5425 186.966 87.8746 186.339 88.3207 185.796C88.7669 185.252 89.3179 184.805 89.941 184.479C90.564 184.154 91.2463 183.958 91.947 183.902C92.6477 183.846 93.3524 183.932 94.0191 184.155C94.6858 184.377 95.3008 184.732 95.8273 185.198C96.3538 185.663 96.781 186.231 97.0834 186.865C97.3859 187.5 97.5573 188.189 97.5874 188.891C98.5874 201.001 97.2674 227.031 85.3574 240.681C82.309 244.27 78.5504 247.189 74.3184 249.255C70.0863 251.32 65.4725 252.486 60.7674 252.681C60.0374 252.731 59.3074 252.751 58.5974 252.751Z" fill="white"/>
</mask>
<g mask="url(#mask1_0_1)">
<path d="M91.9574 184.091C90.576 184.203 89.2955 184.859 88.3974 185.915C87.4992 186.97 87.0569 188.339 87.1674 189.721C87.5874 195.031 86.8774 202.881 85.0374 210.721C87.6654 210.61 90.2931 210.948 92.8074 211.721C92.2125 219.244 89.5704 226.461 85.1674 232.591C75.4574 246.081 60.8974 250.391 49.5674 248.771C44.4974 248.051 38.6874 245.391 33.7974 242.661C40.4324 249.131 49.3297 252.758 58.5974 252.771C59.3074 252.771 60.0374 252.771 60.7674 252.711C65.4725 252.516 70.0863 251.35 74.3184 249.285C78.5504 247.219 82.309 244.3 85.3574 240.711C97.2674 227.061 98.5474 201.031 97.5874 188.921C97.5382 188.233 97.353 187.561 97.0427 186.945C96.7324 186.329 96.3031 185.781 95.7796 185.332C95.2561 184.883 94.6488 184.542 93.9927 184.329C93.3367 184.116 92.6449 184.035 91.9574 184.091Z" fill="#92E3A9"/>
<path opacity="0.5" d="M91.9574 184.091C90.576 184.203 89.2955 184.859 88.3974 185.915C87.4992 186.97 87.0569 188.339 87.1674 189.721C87.5874 195.031 86.8774 202.881 85.0374 210.721C87.6654 210.61 90.2931 210.948 92.8074 211.721C92.2125 219.244 89.5704 226.461 85.1674 232.591C75.4574 246.081 60.8974 250.391 49.5674 248.771C44.4974 248.051 38.6874 245.391 33.7974 242.661C40.4324 249.131 49.3297 252.758 58.5974 252.771C59.3074 252.771 60.0374 252.771 60.7674 252.711C65.4725 252.516 70.0863 251.35 74.3184 249.285C78.5504 247.219 82.309 244.3 85.3574 240.711C97.2674 227.061 98.5474 201.031 97.5874 188.921C97.5382 188.233 97.353 187.561 97.0427 186.945C96.7324 186.329 96.3031 185.781 95.7796 185.332C95.2561 184.883 94.6488 184.542 93.9927 184.329C93.3367 184.116 92.6449 184.035 91.9574 184.091Z" fill="white"/>
</g>
<path d="M58.5974 252.751C36.3374 252.751 22.9574 233.001 18.2074 215.631L18.0474 215.021C17.7944 214.179 17.7138 213.294 17.8104 212.42C17.9071 211.546 18.1791 210.7 18.6102 209.933C19.0412 209.167 19.6225 208.495 20.3191 207.958C21.0157 207.422 21.8135 207.031 22.6646 206.809C23.5158 206.588 24.4028 206.541 25.2727 206.67C26.1426 206.799 26.9775 207.103 27.7274 207.562C28.4773 208.022 29.1268 208.628 29.6372 209.344C30.1475 210.06 30.5081 210.872 30.6974 211.731L30.8174 212.181C34.4274 225.401 44.2574 240.511 60.0274 239.641C62.9928 239.538 65.9035 238.813 68.5703 237.512C71.2372 236.211 73.6007 234.364 75.5074 232.091C84.1574 222.171 88.0274 200.601 87.1674 189.721C87.086 189.023 87.1462 188.315 87.3444 187.641C87.5425 186.966 87.8746 186.339 88.3207 185.796C88.7669 185.252 89.3179 184.805 89.941 184.479C90.564 184.154 91.2463 183.958 91.947 183.902C92.6477 183.846 93.3524 183.932 94.0191 184.155C94.6858 184.377 95.3008 184.732 95.8273 185.198C96.3538 185.663 96.781 186.231 97.0834 186.865C97.3859 187.5 97.5573 188.189 97.5874 188.891C98.5874 201.001 97.2674 227.031 85.3574 240.681C82.309 244.27 78.5504 247.189 74.3184 249.255C70.0863 251.32 65.4725 252.486 60.7674 252.681C60.0374 252.731 59.3074 252.751 58.5974 252.751Z" stroke="#263238" stroke-width="1.1133" stroke-linecap="round" stroke-linejoin="round"/>
<path d="M45.7574 239.221C46.2874 236.771 40.4274 240.601 35.5174 244.171C37.3337 245.706 39.2888 247.068 41.3574 248.241C43.1074 245.391 45.2474 241.581 45.7574 239.221Z" fill="#92E3A9" stroke="#263238" stroke-width="1.1133" stroke-linecap="round" stroke-linejoin="round"/>
<path d="M58.5974 252.751C59.3074 252.751 60.0374 252.751 60.7674 252.691C62.892 252.572 65.0028 252.274 67.0774 251.801C64.3174 248.201 60.5174 243.441 59.4274 243.081C58.1774 242.661 55.7674 248.791 54.4274 252.511C55.8115 252.672 57.2039 252.752 58.5974 252.751Z" fill="#92E3A9" stroke="#263238" stroke-width="1.1133" stroke-linecap="round" stroke-linejoin="round"/>
<path d="M30.8174 212.181L30.6974 211.731C30.5081 210.872 30.1475 210.06 29.6372 209.344C29.1268 208.628 28.4773 208.022 27.7274 207.562C26.9775 207.103 26.1426 206.799 25.2727 206.67C24.4028 206.541 23.5158 206.588 22.6646 206.809C21.8135 207.031 21.0157 207.422 20.3191 207.958C19.6225 208.495 19.0412 209.167 18.6102 209.933C18.1791 210.7 17.9071 211.546 17.8104 212.42C17.7138 213.294 17.7944 214.179 18.0474 215.021L18.2074 215.631C19.8748 221.731 22.4359 227.551 25.8074 232.901L37.7174 227.231C34.5943 222.634 32.2621 217.547 30.8174 212.181Z" fill="#92E3A9" stroke="#263238" stroke-width="1.1133" stroke-linecap="round" stroke-linejoin="round"/>
<path d="M85.3574 240.681C86.2726 239.621 87.1209 238.506 87.8974 237.341C84.1174 236.051 78.4574 234.271 76.3574 234.461C73.8674 234.691 77.2474 242.691 78.9874 246.461C81.3296 244.79 83.4676 242.85 85.3574 240.681Z" fill="#92E3A9" stroke="#263238" stroke-width="1.1133" stroke-linecap="round" stroke-linejoin="round"/>
<path d="M85.5674 219.311C85.1674 220.111 90.0574 223.671 93.3574 225.961C94.4042 222.846 95.246 219.666 95.8774 216.441C91.8774 217.241 85.9574 218.531 85.5674 219.311Z" fill="#92E3A9" stroke="#263238" stroke-width="1.1133" stroke-linecap="round" stroke-linejoin="round"/>
<path d="M97.4974 204.521C97.7174 201.671 97.8274 198.951 97.8374 196.451C94.3974 198.341 90.3174 200.961 90.3174 202.681C90.3174 204.401 94.1374 204.611 97.4974 204.521Z" fill="#92E3A9" stroke="#263238" stroke-width="1.1133" stroke-linecap="round" stroke-linejoin="round"/>
<path d="M43.6574 127.151C43.6574 127.151 33.9474 155.271 39.1774 177.151C40.7265 183.554 43.7336 189.512 47.9643 194.561C52.1949 199.611 57.5348 203.615 63.5674 206.261C63.5674 206.261 49.3774 211.261 52.5674 218.951C55.7574 226.641 67.9874 221.691 71.9774 219.201C75.9674 216.711 80.9774 209.251 81.6774 204.271C82.1223 201.726 82.2899 199.141 82.1774 196.561C82.1774 196.561 98.3474 194.821 109.297 185.861C109.297 185.861 119.007 193.571 125.977 192.081C132.947 190.591 142.897 178.141 141.897 166.951C140.897 155.761 134.447 155.771 130.507 157.471C128.462 158.244 126.597 159.429 125.027 160.951C125.027 160.951 130.747 153.951 125.027 144.281C123.339 141.444 121.027 139.029 118.267 137.219C115.507 135.408 112.372 134.25 109.097 133.831C109.097 133.831 106.097 117.901 97.1574 111.931C88.2174 105.961 56.3474 99.7808 43.6574 127.151Z" fill="white"/>
<mask id="mask2_0_1" style="mask-type:luminance" maskUnits="userSpaceOnUse" x="37" y="106" width="105" height="118">
<path d="M43.6574 127.151C43.6574 127.151 33.9474 155.271 39.1774 177.151C40.7265 183.554 43.7336 189.512 47.9643 194.561C52.1949 199.611 57.5348 203.615 63.5674 206.261C63.5674 206.261 49.3774 211.261 52.5674 218.951C55.7574 226.641 67.9874 221.691 71.9774 219.201C75.9674 216.711 80.9774 209.251 81.6774 204.271C82.1223 201.726 82.2899 199.141 82.1774 196.561C82.1774 196.561 98.3474 194.821 109.297 185.861C109.297 185.861 119.007 193.571 125.977 192.081C132.947 190.591 142.897 178.141 141.897 166.951C140.897 155.761 134.447 155.771 130.507 157.471C128.462 158.244 126.597 159.429 125.027 160.951C125.027 160.951 130.747 153.951 125.027 144.281C123.339 141.444 121.027 139.029 118.267 137.219C115.507 135.408 112.372 134.25 109.097 133.831C109.097 133.831 106.097 117.901 97.1574 111.931C88.2174 105.961 56.3474 99.7808 43.6574 127.151Z" fill="white"/>
</mask>
<g mask="url(#mask2_0_1)">
<path d="M117.587 136.821C112.971 144.521 106.583 151.009 98.9543 155.743C91.3257 160.478 82.677 163.322 73.7274 164.041C53.9274 165.781 42.8274 161.881 37.7274 159.171C38.3462 148.291 40.3628 137.536 43.7274 127.171C56.4174 99.8008 88.2674 106.021 97.2274 111.991C106.187 117.961 109.167 133.891 109.167 133.891C112.149 134.265 115.018 135.263 117.587 136.821ZM130.507 157.471C128.462 158.244 126.597 159.429 125.027 160.951C126.239 159.281 127.037 157.348 127.357 155.311C113.907 162.011 114.957 176.311 113.287 176.311C111.227 176.311 110.207 169.121 110.207 169.121C110.207 169.121 107.637 179.391 92.2074 186.591C76.7774 193.791 59.3274 188.131 59.3274 188.131C59.3274 188.131 62.9274 196.351 53.6774 195.321C51.0815 195.073 48.5925 194.164 46.4474 192.681C50.8831 198.595 56.7742 203.259 63.5474 206.221C63.5474 206.221 49.3574 211.221 52.5474 218.911C55.7374 226.601 67.9774 221.651 71.9574 219.161C75.9374 216.671 80.9574 209.211 81.6574 204.231C82.1023 201.686 82.2699 199.101 82.1574 196.521C82.1574 196.521 98.3274 194.781 109.277 185.821C109.277 185.821 118.987 193.531 125.957 192.041C132.927 190.551 142.877 178.101 141.877 166.911C140.877 155.721 134.447 155.771 130.507 157.471Z" fill="#92E3A9"/>
<path opacity="0.5" d="M117.587 136.821C112.971 144.521 106.583 151.009 98.9543 155.743C91.3257 160.478 82.677 163.322 73.7274 164.041C53.9274 165.781 42.8274 161.881 37.7274 159.171C38.3462 148.291 40.3628 137.536 43.7274 127.171C56.4174 99.8008 88.2674 106.021 97.2274 111.991C106.187 117.961 109.167 133.891 109.167 133.891C112.149 134.265 115.018 135.263 117.587 136.821ZM130.507 157.471C128.462 158.244 126.597 159.429 125.027 160.951C126.239 159.281 127.037 157.348 127.357 155.311C113.907 162.011 114.957 176.311 113.287 176.311C111.227 176.311 110.207 169.121 110.207 169.121C110.207 169.121 107.637 179.391 92.2074 186.591C76.7774 193.791 59.3274 188.131 59.3274 188.131C59.3274 188.131 62.9274 196.351 53.6774 195.321C51.0815 195.073 48.5925 194.164 46.4474 192.681C50.8831 198.595 56.7742 203.259 63.5474 206.221C63.5474 206.221 49.3574 211.221 52.5474 218.911C55.7374 226.601 67.9774 221.651 71.9574 219.161C75.9374 216.671 80.9574 209.211 81.6574 204.231C82.1023 201.686 82.2699 199.101 82.1574 196.521C82.1574 196.521 98.3274 194.781 109.277 185.821C109.277 185.821 118.987 193.531 125.957 192.041C132.927 190.551 142.877 178.101 141.877 166.911C140.877 155.721 134.447 155.771 130.507 157.471Z" fill="white"/>
<path d="M82.2274 196.581C76.8606 196.724 71.5325 195.634 66.6526 193.396C61.7726 191.158 57.4707 187.831 54.0774 183.671" stroke="#263238" stroke-width="1.1133" stroke-linecap="round" stroke-linejoin="round"/>
</g>
<path d="M43.6574 127.151C43.6574 127.151 33.9474 155.271 39.1774 177.151C40.7265 183.554 43.7336 189.512 47.9643 194.561C52.1949 199.611 57.5348 203.615 63.5674 206.261C63.5674 206.261 49.3774 211.261 52.5674 218.951C55.7574 226.641 67.9874 221.691 71.9774 219.201C75.9674 216.711 80.9774 209.251 81.6774 204.271C82.1223 201.726 82.2899 199.141 82.1774 196.561C82.1774 196.561 98.3474 194.821 109.297 185.861C109.297 185.861 119.007 193.571 125.977 192.081C132.947 190.591 142.897 178.141 141.897 166.951C140.897 155.761 134.447 155.771 130.507 157.471C128.462 158.244 126.597 159.429 125.027 160.951C125.027 160.951 130.747 153.951 125.027 144.281C123.339 141.444 121.027 139.029 118.267 137.219C115.507 135.408 112.372 134.25 109.097 133.831C109.097 133.831 106.097 117.901 97.1574 111.931C88.2174 105.961 56.3474 99.7808 43.6574 127.151Z" stroke="#263238" stroke-width="1.1133" stroke-linecap="round" stroke-linejoin="round"/>
<path d="M125.027 160.991C125.027 160.991 119.807 164.481 117.317 175.181" stroke="#263238" stroke-width="1.1133" stroke-linecap="round" stroke-linejoin="round"/>
<path d="M134.617 165.571C134.007 167.391 132.337 168.481 130.897 167.991C129.457 167.501 128.797 165.631 129.407 163.811C130.017 161.991 131.687 160.901 133.127 161.391C134.567 161.881 135.237 163.751 134.617 165.571Z" fill="white" stroke="#263238" stroke-width="1.1133" stroke-linecap="round" stroke-linejoin="round"/>
<path d="M139.767 168.811C139.157 170.631 137.487 171.721 136.047 171.231C134.607 170.741 133.937 168.871 134.557 167.051C135.177 165.231 136.837 164.141 138.277 164.631C139.717 165.121 140.387 166.991 139.767 168.811Z" fill="white" stroke="#263238" stroke-width="1.1133" stroke-linecap="round" stroke-linejoin="round"/>
<path d="M140.867 173.661C140.668 173.996 140.377 174.267 140.03 174.443C139.682 174.619 139.292 174.693 138.904 174.656C138.516 174.62 138.146 174.473 137.838 174.235C137.529 173.996 137.295 173.675 137.162 173.309C137.029 172.943 137.002 172.546 137.086 172.165C137.169 171.785 137.359 171.435 137.632 171.158C137.906 170.881 138.253 170.687 138.633 170.599C139.013 170.511 139.409 170.532 139.777 170.661C140.308 170.926 140.718 171.385 140.92 171.944C141.123 172.502 141.104 173.116 140.867 173.661Z" fill="white" stroke="#263238" stroke-width="1.1133" stroke-linecap="round" stroke-linejoin="round"/>
<path d="M134.297 180.321C132.497 183.571 128.897 185.011 126.247 183.541C123.597 182.071 122.917 178.261 124.717 175.011C126.517 171.761 130.117 170.321 132.767 171.791C135.417 173.261 136.097 177.071 134.297 180.321Z" fill="white" stroke="#263238" stroke-width="1.1133" stroke-linecap="round" stroke-linejoin="round"/>
<path d="M63.5674 206.281C66.9197 207.841 70.7302 208.108 74.2674 207.031" stroke="#263238" stroke-width="1.1133" stroke-linecap="round" stroke-linejoin="round"/>
<path d="M52.6174 218.971C52.6174 218.971 53.6174 214.741 59.8274 211.761" stroke="#263238" stroke-width="1.1133" stroke-linecap="round" stroke-linejoin="round"/>
<path d="M58.8374 222.711C58.8374 222.711 61.3274 216.711 65.5574 214.001" stroke="#263238" stroke-width="1.1133" stroke-linecap="round" stroke-linejoin="round"/>
<path d="M45.5774 154.351C39.5831 151.735 34.2748 147.768 30.0674 142.761C25.8415 137.47 22.5415 131.503 20.3074 125.111C17.7752 118.206 15.995 111.048 14.9974 103.761C13.9566 95.8273 13.4555 87.8322 13.4974 79.8308C13.4974 27.1175 31.4974 0.760822 67.4974 0.760822C103.497 0.760822 121.454 27.1175 121.367 79.8308C121.403 87.7939 120.919 95.7508 119.917 103.651C118.952 110.939 117.189 118.099 114.657 125.001C112.423 131.393 109.123 137.36 104.897 142.651C100.685 147.665 95.3788 151.647 89.3874 154.291C82.4989 157.336 75.0277 158.838 67.4974 158.691C59.9633 158.842 52.4855 157.362 45.5774 154.351ZM78.1374 139.221C81.1496 137.936 83.8835 136.078 86.1874 133.751C88.5202 131.267 90.4381 128.424 91.8674 125.331C93.4447 122.054 94.7199 118.64 95.6774 115.131C96.6858 111.308 97.421 107.418 97.8774 103.491C98.4174 99.1575 98.7774 95.1875 98.9574 91.5808C99.1374 87.9742 99.2241 84.0575 99.2174 79.8308C99.2174 75.3975 99.1308 71.3042 98.9574 67.5508C98.7841 63.7975 98.4074 59.7708 97.8274 55.4708C97.3295 51.5463 96.578 47.6582 95.5774 43.8308C94.631 40.3573 93.3552 36.982 91.7674 33.7508C90.3271 30.7065 88.4059 27.9141 86.0774 25.4808C83.7873 23.2003 81.0684 21.3956 78.0774 20.1708C71.24 17.531 63.6648 17.531 56.8274 20.1708C53.8585 21.3809 51.1595 23.1688 48.8874 25.4308C46.5762 27.8535 44.6596 30.6238 43.2074 33.6408C41.6055 36.8429 40.3452 40.2048 39.4474 43.6708C38.4712 47.5212 37.7364 51.4288 37.2474 55.3708C36.6674 59.7308 36.2908 63.7908 36.1174 67.5508C35.9441 71.3108 35.8541 75.4042 35.8474 79.8308C35.8474 84.0508 35.9374 87.9842 36.1174 91.6308C36.2974 95.2775 36.6541 99.2775 37.1874 103.631C37.6488 107.557 38.3839 111.447 39.3874 115.271C40.3315 118.778 41.5934 122.192 43.1574 125.471C44.5721 128.545 46.4732 131.371 48.7874 133.841C51.0741 136.153 53.792 137.995 56.7874 139.261C63.6314 142.047 71.2935 142.047 78.1374 139.261V139.221Z" fill="#263238"/>
<path d="M23.4974 112.971C23.4974 112.971 13.0474 127.651 11.5574 142.581C10.0674 157.511 11.8074 167.461 16.2874 171.201C20.7674 174.941 25.2374 173.441 27.7274 169.951C30.2174 166.461 26.2374 154.271 26.2374 154.271C26.2374 154.271 30.4674 142.581 36.9374 134.371C43.4074 126.161 44.6474 124.911 44.6474 124.911C44.6474 124.911 33.4474 112.221 23.4974 112.971Z" fill="white"/>
<mask id="mask3_0_1" style="mask-type:luminance" maskUnits="userSpaceOnUse" x="11" y="112" width="34" height="62">
<path d="M23.4974 112.971C23.4974 112.971 13.0474 127.651 11.5574 142.581C10.0674 157.511 11.8074 167.461 16.2874 171.201C20.7674 174.941 25.2374 173.441 27.7274 169.951C30.2174 166.461 26.2374 154.271 26.2374 154.271C26.2374 154.271 30.4674 142.581 36.9374 134.371C43.4074 126.161 44.6474 124.911 44.6474 124.911C44.6474 124.911 33.4474 112.221 23.4974 112.971Z" fill="white"/>
</mask>
<g mask="url(#mask3_0_1)">
<path d="M23.4974 112.971C21.2171 116.34 19.1947 119.877 17.4474 123.551C22.4474 125.551 30.1974 129.651 35.1174 136.911C35.7174 136.041 36.3374 135.181 36.9774 134.371C43.4474 126.161 44.6874 124.911 44.6874 124.911C44.6874 124.911 33.4474 112.221 23.4974 112.971Z" fill="#92E3A9"/>
<path opacity="0.5" d="M23.4974 112.971C21.2171 116.34 19.1947 119.877 17.4474 123.551C22.4474 125.551 30.1974 129.651 35.1174 136.911C35.7174 136.041 36.3374 135.181 36.9774 134.371C43.4474 126.161 44.6874 124.911 44.6874 124.911C44.6874 124.911 33.4474 112.221 23.4974 112.971Z" fill="white"/>
</g>
<path d="M23.4974 112.971C23.4974 112.971 13.0474 127.651 11.5574 142.581C10.0674 157.511 11.8074 167.461 16.2874 171.201C20.7674 174.941 25.2374 173.441 27.7274 169.951C30.2174 166.461 26.2374 154.271 26.2374 154.271C26.2374 154.271 30.4674 142.581 36.9374 134.371C43.4074 126.161 44.6474 124.911 44.6474 124.911C44.6474 124.911 33.4474 112.221 23.4974 112.971Z" stroke="#263238" stroke-width="1.1133" stroke-linecap="round" stroke-linejoin="round"/>
<path d="M16.2874 171.201C15.0656 167.938 14.4718 164.474 14.5374 160.991" stroke="#263238" stroke-width="1.1133" stroke-linecap="round" stroke-linejoin="round"/>
<path d="M22.9974 172.691C22.9974 172.691 20.5174 168.461 20.2674 161.241" stroke="#263238" stroke-width="1.1133" stroke-linecap="round" stroke-linejoin="round"/>
<path d="M26.7374 139.591C26.7374 136.971 21.7374 131.851 14.7874 129.591C13.8531 132.027 13.0814 134.522 12.4774 137.061C15.1776 137.523 17.7998 138.361 20.2674 139.551C23.9974 141.581 26.7374 142.581 26.7374 139.591Z" fill="#92E3A9" stroke="#263238" stroke-width="1.1133" stroke-linecap="round" stroke-linejoin="round"/>
<path d="M22.8874 113.861C21.2754 116.318 19.7934 118.858 18.4474 121.471C20.5519 122.027 22.5705 122.868 24.4474 123.971C32.1574 128.441 33.6474 128.971 31.1674 122.471C29.6674 118.391 26.0874 115.621 22.8874 113.861Z" fill="#92E3A9" stroke="#263238" stroke-width="1.1133" stroke-linecap="round" stroke-linejoin="round"/>
<path d="M105.347 105.721C105.347 105.721 117.187 119.301 120.137 134.021C123.087 148.741 122.337 158.811 118.237 162.961C114.137 167.111 109.547 166.071 106.727 162.841C103.907 159.611 106.727 147.101 106.727 147.101C106.727 147.101 101.367 135.871 94.1274 128.331C86.8874 120.791 85.5174 119.681 85.5174 119.681C85.5174 119.681 95.3674 105.951 105.347 105.721Z" fill="white"/>
<mask id="mask4_0_1" style="mask-type:luminance" maskUnits="userSpaceOnUse" x="85" y="105" width="37" height="61">
<path d="M105.347 105.721C105.347 105.721 117.187 119.301 120.137 134.021C123.087 148.741 122.337 158.811 118.237 162.961C114.137 167.111 109.547 166.071 106.727 162.841C103.907 159.611 106.727 147.101 106.727 147.101C106.727 147.101 101.367 135.871 94.1274 128.331C86.8874 120.791 85.5174 119.681 85.5174 119.681C85.5174 119.681 95.3674 105.951 105.347 105.721Z" fill="white"/>
</mask>
<g mask="url(#mask4_0_1)">
<path d="M105.347 105.721C95.3474 105.951 85.4674 119.721 85.4674 119.721C85.4674 119.721 86.8274 120.841 94.0774 128.371C95.4333 129.799 96.7086 131.301 97.8974 132.871C101.681 126.479 107.087 121.201 113.567 117.571C111.183 113.386 108.432 109.42 105.347 105.721Z" fill="#92E3A9"/>
<path opacity="0.5" d="M105.347 105.721C95.3474 105.951 85.4674 119.721 85.4674 119.721C85.4674 119.721 86.8274 120.841 94.0774 128.371C95.4333 129.799 96.7086 131.301 97.8974 132.871C101.681 126.479 107.087 121.201 113.567 117.571C111.183 113.386 108.432 109.42 105.347 105.721Z" fill="white"/>
</g>
<path d="M105.347 105.721C105.347 105.721 117.187 119.301 120.137 134.021C123.087 148.741 122.337 158.811 118.237 162.961C114.137 167.111 109.547 166.071 106.727 162.841C103.907 159.611 106.727 147.101 106.727 147.101C106.727 147.101 101.367 135.871 94.1274 128.331C86.8874 120.791 85.5174 119.681 85.5174 119.681C85.5174 119.681 95.3674 105.951 105.347 105.721Z" stroke="#263238" stroke-width="1.1133" stroke-linecap="round" stroke-linejoin="round"/>
<path d="M118.237 162.961C119.134 159.598 119.385 156.097 118.977 152.641" stroke="#263238" stroke-width="1.1133" stroke-linecap="round" stroke-linejoin="round"/>
<path d="M111.697 165.101C111.697 165.101 113.767 160.651 113.307 153.441" stroke="#263238" stroke-width="1.1133" stroke-linecap="round" stroke-linejoin="round"/>
<path d="M104.737 132.531C104.487 129.921 108.957 124.341 115.657 121.451C116.816 123.782 117.818 126.187 118.657 128.651C116.021 129.386 113.497 130.48 111.157 131.901C107.657 134.251 105.037 135.471 104.737 132.531Z" fill="#92E3A9" stroke="#263238" stroke-width="1.1133" stroke-linecap="round" stroke-linejoin="round"/>
<path d="M106.037 106.551C107.877 108.82 109.593 111.187 111.177 113.641C109.13 114.399 107.196 115.432 105.427 116.711C98.1974 121.931 96.7574 122.571 98.5974 115.891C99.7474 111.721 103.027 108.611 106.037 106.551Z" fill="#92E3A9" stroke="#263238" stroke-width="1.1133" stroke-linecap="round" stroke-linejoin="round"/>
<path d="M22.5174 100.271C22.5174 100.271 19.4374 110.661 20.5974 114.891C21.7574 119.121 27.1374 115.281 32.5274 119.891C37.9174 124.501 42.9074 132.821 63.3174 134.361C83.7274 135.901 96.0474 124.891 100.317 118.731C104.587 112.571 104.167 105.261 111.477 104.881C118.787 104.501 112.637 90.2508 110.327 87.9408C110.327 87.9408 124.567 66.7708 124.567 61.3808C124.567 55.9908 111.097 57.1408 94.5674 62.1508C94.5674 62.1508 82.2474 55.6008 59.9174 59.4508C37.5874 63.3008 31.0474 69.8508 31.0474 69.8508C31.0474 69.8508 3.32743 73.3108 1.40743 76.7708C-0.512574 80.2308 5.19743 94.8808 22.5174 100.271Z" fill="white"/>
<mask id="mask5_0_1" style="mask-type:luminance" maskUnits="userSpaceOnUse" x="1" y="57" width="124" height="78">
<path d="M22.5174 100.271C22.5174 100.271 19.4374 110.661 20.5974 114.891C21.7574 119.121 27.1374 115.281 32.5274 119.891C37.9174 124.501 42.9074 132.821 63.3174 134.361C83.7274 135.901 96.0474 124.891 100.317 118.731C104.587 112.571 104.167 105.261 111.477 104.881C118.787 104.501 112.637 90.2508 110.327 87.9408C110.327 87.9408 124.567 66.7708 124.567 61.3808C124.567 55.9908 111.097 57.1408 94.5674 62.1508C94.5674 62.1508 82.2474 55.6008 59.9174 59.4508C37.5874 63.3008 31.0474 69.8508 31.0474 69.8508C31.0474 69.8508 3.32743 73.3108 1.40743 76.7708C-0.512574 80.2308 5.19743 94.8808 22.5174 100.271Z" fill="white"/>
</mask>
<g mask="url(#mask5_0_1)">
<path d="M111.447 104.891C118.767 104.501 112.607 90.2608 110.297 87.9508C110.297 87.9508 113.007 83.9508 116.057 78.9508C107.787 74.6308 99.6674 72.2308 97.5074 74.6608C92.8574 79.8808 95.3874 89.8808 97.5074 99.6608C99.6274 109.441 91.1574 113.611 85.2374 122.071C79.3174 130.531 70.8674 121.221 70.8674 121.221C67.8674 133.491 55.2174 125.451 55.2174 125.451C45.4974 122.451 29.0074 112.771 32.3874 106.001C35.7674 99.2308 36.6174 92.8908 30.6974 87.4008C24.7774 81.9108 1.16742 77.3408 1.16742 77.3408C-0.0725792 81.5108 5.91742 95.1708 22.5274 100.341C22.5274 100.341 19.4474 110.731 20.6074 114.961C21.7674 119.191 27.1474 115.351 32.5374 119.961C37.9274 124.571 42.9174 132.891 63.3274 134.431C83.7374 135.971 96.0574 124.961 100.327 118.801C104.597 112.641 104.127 105.271 111.447 104.891Z" fill="#92E3A9"/>
<path opacity="0.5" d="M111.447 104.891C118.767 104.501 112.607 90.2608 110.297 87.9508C110.297 87.9508 113.007 83.9508 116.057 78.9508C107.787 74.6308 99.6674 72.2308 97.5074 74.6608C92.8574 79.8808 95.3874 89.8808 97.5074 99.6608C99.6274 109.441 91.1574 113.611 85.2374 122.071C79.3174 130.531 70.8674 121.221 70.8674 121.221C67.8674 133.491 55.2174 125.451 55.2174 125.451C45.4974 122.451 29.0074 112.771 32.3874 106.001C35.7674 99.2308 36.6174 92.8908 30.6974 87.4008C24.7774 81.9108 1.16742 77.3408 1.16742 77.3408C-0.0725792 81.5108 5.91742 95.1708 22.5274 100.341C22.5274 100.341 19.4474 110.731 20.6074 114.961C21.7674 119.191 27.1474 115.351 32.5374 119.961C37.9274 124.571 42.9174 132.891 63.3274 134.431C83.7374 135.971 96.0574 124.961 100.327 118.801C104.597 112.641 104.127 105.271 111.447 104.891Z" fill="white"/>
<path d="M81.3374 107.211C81.6274 109.651 76.2074 112.281 69.2574 113.091C62.3074 113.901 56.4274 112.581 56.1374 110.091C55.8474 107.601 61.2674 105.031 68.2274 104.221C75.1874 103.411 81.0574 104.781 81.3374 107.211Z" fill="#92E3A9"/>
<path opacity="0.5" d="M81.3374 107.211C81.6274 109.651 76.2074 112.281 69.2574 113.091C62.3074 113.901 56.4274 112.581 56.1374 110.091C55.8474 107.601 61.2674 105.031 68.2274 104.221C75.1874 103.411 81.0574 104.781 81.3374 107.211Z" fill="white"/>
</g>
<path d="M22.5174 100.271C22.5174 100.271 19.4374 110.661 20.5974 114.891C21.7574 119.121 27.1374 115.281 32.5274 119.891C37.9174 124.501 42.9074 132.821 63.3174 134.361C83.7274 135.901 96.0474 124.891 100.317 118.731C104.587 112.571 104.167 105.261 111.477 104.881C118.787 104.501 112.637 90.2508 110.327 87.9408C110.327 87.9408 124.567 66.7708 124.567 61.3808C124.567 55.9908 111.097 57.1408 94.5674 62.1508C94.5674 62.1508 82.2474 55.6008 59.9174 59.4508C37.5874 63.3008 31.0474 69.8508 31.0474 69.8508C31.0474 69.8508 3.32743 73.3108 1.40743 76.7708C-0.512574 80.2308 5.19743 94.8808 22.5174 100.271Z" stroke="#263238" stroke-width="1.1133" stroke-miterlimit="10"/>
<path d="M102.137 69.4708C92.1374 76.1908 95.6674 82.9108 100.137 86.6408C102.867 88.9208 107.267 88.6408 110.277 88.0008C110.277 88.0008 124.517 66.8308 124.517 61.4408C124.527 61.3908 112.087 62.7008 102.137 69.4708Z" fill="#92E3A9" stroke="#263238" stroke-width="1.1133" stroke-miterlimit="10"/>
<path d="M1.15743 77.2708C-0.0825737 81.4408 5.90743 95.1008 22.5174 100.271C22.5174 100.271 35.1974 99.0308 30.9674 88.8308C27.0174 79.3108 7.04743 76.9408 1.15743 77.2708Z" fill="#92E3A9" stroke="#263238" stroke-width="1.1133" stroke-miterlimit="10"/>
<path d="M59.8574 59.4708C58.5474 59.7008 57.2874 59.9408 56.0774 60.1808C58.0774 70.2808 61.3674 87.1008 64.3074 87.1008C67.2474 87.1008 69.4974 68.6608 70.4574 58.3308C66.9031 58.4805 63.3623 58.8613 59.8574 59.4708Z" fill="#92E3A9" stroke="#263238" stroke-width="1.1133" stroke-miterlimit="10"/>
<path d="M48.3874 84.1008C51.4474 82.3008 50.9874 68.7708 50.4974 61.4308C47.3392 62.2155 44.2304 63.1872 41.1874 64.3408C42.2974 71.2108 45.1174 86.0208 48.3874 84.1008Z" fill="#92E3A9" stroke="#263238" stroke-width="1.1133" stroke-miterlimit="10"/>
<path d="M77.9974 77.8808C81.1274 78.9808 82.8874 67.7308 83.8774 59.0708C80.7163 58.5556 77.5202 58.2848 74.3174 58.2608C74.2174 65.3708 74.6074 76.6908 77.9974 77.8808Z" fill="#92E3A9" stroke="#263238" stroke-width="1.1133" stroke-miterlimit="10"/>
<path d="M73.8074 116.821C70.8871 116.053 67.7835 116.436 65.1374 117.891C65.0214 117.958 64.9227 118.051 64.8491 118.163C64.7755 118.275 64.7291 118.403 64.7135 118.536C64.698 118.669 64.7138 118.804 64.7596 118.93C64.8054 119.055 64.88 119.169 64.9774 119.261L70.2874 124.261C70.387 124.354 70.5073 124.422 70.6384 124.46C70.7696 124.497 70.9078 124.503 71.0416 124.477C71.1754 124.451 71.3011 124.393 71.4082 124.308C71.5152 124.224 71.6007 124.115 71.6574 123.991L74.3774 117.991C74.426 117.877 74.4497 117.755 74.4467 117.631C74.4437 117.508 74.4142 117.386 74.3601 117.275C74.306 117.164 74.2286 117.066 74.1333 116.988C74.0379 116.909 73.9268 116.852 73.8074 116.821Z" fill="#92E3A9" stroke="#263238" stroke-width="1.1133" stroke-linecap="round" stroke-linejoin="round"/>
<path d="M61.1874 108.471C61.9174 110.401 61.6274 112.301 60.5374 112.711C59.4474 113.121 57.9674 111.901 57.2274 109.981C56.4874 108.061 56.7874 106.151 57.8774 105.741C58.9674 105.331 60.4474 106.551 61.1874 108.471Z" fill="#263238"/>
<path d="M75.6674 107.101C75.2874 109.101 75.9074 110.951 77.0574 111.161C78.2074 111.371 79.4474 109.911 79.8274 107.881C80.2074 105.851 79.5874 104.041 78.4374 103.821C77.2874 103.601 76.0474 105.081 75.6674 107.101Z" fill="#263238"/>
<path d="M71.6574 123.981C71.6574 123.981 64.5574 133.621 58.0874 123.921" stroke="#263238" stroke-width="1.1133" stroke-linecap="round" stroke-linejoin="round"/>
<path d="M70.2874 124.251C70.2874 124.251 75.0074 129.141 79.9874 126.401C84.9674 123.661 81.9874 119.401 81.9874 119.401" stroke="#263238" stroke-width="1.1133" stroke-linecap="round" stroke-linejoin="round"/>
<path d="M48.6374 100.771C48.6374 100.771 50.3774 94.5508 58.5874 96.0408" stroke="#263238" stroke-width="3.33991" stroke-linecap="round" stroke-linejoin="round"/>
<path d="M73.5174 95.0508C73.5174 95.0508 79.7374 91.3208 85.4574 97.2908" stroke="#263238" stroke-width="3.33991" stroke-linecap="round" stroke-linejoin="round"/>
<path d="M43.9074 117.451L49.8774 118.941" stroke="#263238" stroke-width="1.1133" stroke-miterlimit="10" stroke-linecap="round"/>
<path d="M49.1274 121.181L43.9074 122.171" stroke="#263238" stroke-width="1.1133" stroke-miterlimit="10" stroke-linecap="round"/>
<path d="M50.1274 123.921L46.3974 125.911" stroke="#263238" stroke-width="1.1133" stroke-miterlimit="10" stroke-linecap="round"/>
<path d="M87.9474 114.711L93.1774 113.461" stroke="#263238" stroke-width="1.1133" stroke-miterlimit="10" stroke-linecap="round"/>
<path d="M88.9474 117.201H92.4274" stroke="#263238" stroke-width="1.1133" stroke-miterlimit="10" stroke-linecap="round"/>
<path d="M89.6874 119.691L94.4174 120.931" stroke="#263238" stroke-width="1.1133" stroke-miterlimit="10" stroke-linecap="round"/>
</svg>
